<?xml version="1.0" encoding="utf-8"?>
<!-- Generator: Adobe Illustrator 21.0.0, SVG Export Plug-In . SVG Version: 6.00 Build 0)  -->
<svg version="1.1" id="Layer_1" xmlns="http://www.w3.org/2000/svg" xmlns:xlink="http://www.w3.org/1999/xlink" x="0px" y="0px"
	 viewBox="0 0 198 104" style="enable-background:new 0 0 198 104;" xml:space="preserve">
<style type="text/css">
	.st0{fill:#FFFFFF;}
	.st1{fill:#FEE2CB;}
	.st2{fill:#A7B0C4;}
	.st3{fill:#F3CDB1;}
	.st4{fill:#F8AB9E;}
	.st5{fill:#AED9EC;}
	.st6{fill:#C7EAFB;}
	.st7{fill:#D5E3EE;}
	.st8{fill:#EBF4DF;}
	.st9{fill:#D8E6BE;}
	.st10{fill:#F8DABD;}
	.st11{fill:#EEC9AE;}
	.st12{fill:#0F395A;}
	.st13{fill:#E1B597;}
	.st14{fill:#EDF1F9;}
	.st15{fill:#4E9CD5;}
	.st16{fill:#F5B445;}
	.st17{fill:#0E395A;}
	.st18{fill:#F16B56;}
	.st19{fill:#F04D4E;}
	.st20{fill:#F8A247;}
	.st21{fill:#E8F6FE;}
	.st22{fill:#ADE1FA;}
	.st23{fill:#FFCB5D;}
	.st24{fill:#71B8E5;}
	.st25{fill:#F6B545;}
	.st26{fill:#66869B;}
	.st27{fill:#567789;}
	.st28{fill:#89C764;}
	.st29{fill:#CAD5E3;}
	.st30{fill:#F48576;}
	.st31{fill:#3DB54A;}
	.st32{fill:#F04E4F;}
	.st33{fill:#9AB5CD;}
	.st34{fill:#FFE37C;}
	.st35{fill:#4F6A7C;}
	.st36{fill:#577280;}
	.st37{fill:#368ACA;}
	.st38{fill:#EBEEF7;}
	.st39{fill:#CDDAE4;}
	.st40{fill:#AFC3D7;}
	.st41{fill:#92ADC3;}
	.st42{fill:#ADD7F3;}
	.st43{fill:#72B7E5;}
	.st44{fill:#CF7C32;}
	.st45{fill:#B66928;}
	.st46{fill:#DA8C37;}
	.st47{fill:#B0C4D8;}
	.st48{fill:#FCBB76;}
	.st49{fill:#D3E2EB;}
	.st50{fill:#F7964B;}
	.st51{fill:#FFCA5D;}
</style>
<g>
	<g>
		<path class="st0" d="M147,63v27.3c0,1.1-0.4,2.1-1.2,2.8l-4.7,4.7c-0.8,0.8-1.8,1.2-2.8,1.2H121V63h7.3c0.3,0.6,1,1,1.7,1h8
			c0.7,0,1.4-0.4,1.7-1H147z"/>
	</g>
	<path class="st1" d="M151,61v40c0,1.1-0.9,2-2,2h-30c-1.1,0-2-0.9-2-2V61c0-1.1,0.9-2,2-2h9v3c0,0.4,0.1,0.7,0.3,1H121v36h17.3
		c1.1,0,2.1-0.4,2.8-1.2l4.7-4.7c0.8-0.8,1.2-1.8,1.2-2.8V63h-7.3c0.2-0.3,0.3-0.6,0.3-1v-3h9C150.1,59,151,59.9,151,61z"/>
	<path class="st2" d="M149,58h-9c-0.6,0-1,0.4-1,1v3c0,0.2,0,0.3-0.1,0.5c-0.2,0.3-0.2,0.7,0,1c0.2,0.3,0.5,0.5,0.9,0.5h6.3v25
		c0,1.1-0.9,2-2,2h-4c-0.6,0-1,0.4-1,1v4c0,1.1-0.9,2-2,2h-15V64h6.3c0.4,0,0.7-0.2,0.9-0.5c0.2-0.3,0.2-0.7,0-1
		c-0.1-0.1-0.1-0.3-0.1-0.5v-3c0-0.6-0.4-1-1-1h-9c-1.7,0-3,1.3-3,3v40c0,1.7,1.3,3,3,3h30c1.7,0,3-1.3,3-3V61
		C152,59.3,150.7,58,149,58z M141,93h3.6l-3.6,3.6V93z M150,101c0,0.6-0.4,1-1,1h-30c-0.6,0-1-0.4-1-1V61c0-0.6,0.4-1,1-1h8v2h-6
		c-0.6,0-1,0.4-1,1v36c0,0.6,0.4,1,1,1h17.3c1.3,0,2.6-0.5,3.5-1.5l4.7-4.7c0.9-0.9,1.5-2.2,1.5-3.5V63c0-0.6-0.4-1-1-1h-6v-2h8
		c0.6,0,1,0.4,1,1V101z"/>
	<g>
		<path class="st3" d="M141.9,98.5c-0.9,0.9-2.2,1.5-3.5,1.5h3.8c0.5,0,1-0.2,1.4-0.6l3.8-3.8c0.4-0.4,0.6-0.9,0.6-1.4v-3.8
			c0,1.3-0.5,2.6-1.5,3.5L141.9,98.5z"/>
	</g>
	<g>
		<rect x="141" y="60" class="st3" width="1" height="2"/>
	</g>
	<g>
		<path class="st4" d="M134,69v6h6C140,71.7,137.3,69,134,69z"/>
	</g>
	<g>
		<circle class="st5" cx="128" cy="89" r="1"/>
	</g>
	<g>
		<circle class="st4" cx="128" cy="92" r="1"/>
	</g>
	<g>
		<g>
			<path class="st2" d="M137,90h-6c-0.6,0-1-0.4-1-1s0.4-1,1-1h6c0.6,0,1,0.4,1,1S137.6,90,137,90z"/>
		</g>
	</g>
	<g>
		<g>
			<path class="st2" d="M135,93h-4c-0.6,0-1-0.4-1-1s0.4-1,1-1h4c0.6,0,1,0.4,1,1S135.6,93,135,93z"/>
		</g>
	</g>
	<g>
		<path class="st6" d="M133,70c-3.3,0-6,2.7-6,6s2.7,6,6,6s6-2.7,6-6h-6V70z"/>
	</g>
	<g>
		<path class="st7" d="M140,59v3c0,0.4-0.1,0.7-0.3,1c-0.3,0.6-1,1-1.7,1h-8c-0.7,0-1.4-0.4-1.7-1c-0.2-0.3-0.3-0.6-0.3-1v-3h4
			c0-0.5,0.2-1,0.6-1.4c0.4-0.4,0.9-0.6,1.4-0.6c1.1,0,2,0.9,2,2H140z"/>
		<path class="st2" d="M138,65h-8c-1.1,0-2-0.6-2.6-1.5c-0.3-0.5-0.4-1-0.4-1.5v-3c0-0.6,0.4-1,1-1h3.2c0.1-0.4,0.4-0.8,0.7-1.1
			c0.5-0.6,1.3-0.9,2.1-0.9c1.3,0,2.4,0.8,2.8,2h3.2c0.6,0,1,0.4,1,1v3c0,0.5-0.1,1.1-0.4,1.5C140,64.4,139.1,65,138,65z M129,60v2
			c0,0.2,0,0.3,0.1,0.5c0.2,0.3,0.5,0.5,0.9,0.5h8c0.4,0,0.7-0.2,0.9-0.5c0.1-0.1,0.1-0.3,0.1-0.5v-2h-3c-0.6,0-1-0.4-1-1
			c0-0.6-0.4-1-1-1c-0.3,0-0.5,0.1-0.7,0.3c-0.2,0.2-0.3,0.4-0.3,0.7c0,0.6-0.4,1-1,1H129z"/>
	</g>
</g>
<g>
	<g>
		<g>
			<rect x="139" y="25" class="st8" width="28" height="14"/>
			<path class="st2" d="M168,41h-30c-0.6,0-1-0.4-1-1V24c0-0.6,0.4-1,1-1h30c0.6,0,1,0.4,1,1v16C169,40.6,168.6,41,168,41z M139,39
				h28V25h-28V39z"/>
		</g>
		<g>
			<path class="st2" d="M153,37c-2.8,0-5-2.2-5-5s2.2-5,5-5s5,2.2,5,5S155.8,37,153,37z M153,29c-1.7,0-3,1.3-3,3s1.3,3,3,3
				s3-1.3,3-3S154.7,29,153,29z"/>
		</g>
		<g>
			<path class="st9" d="M139,25v1v12v1h28v-1V26v-1H139z M143,38c0-1.7-1.3-3-3-3v-6c1.7,0,3-1.3,3-3h20c0,1.7,1.3,3,3,3v6
				c-1.7,0-3,1.3-3,3H143z"/>
		</g>
		<g>
			<circle class="st2" cx="162" cy="32" r="1"/>
		</g>
		<g>
			<circle class="st2" cx="144" cy="32" r="1"/>
		</g>
	</g>
	<g>
		<g>
			<rect x="135" y="33" class="st8" width="28" height="14"/>
			<path class="st2" d="M164,49h-30c-0.6,0-1-0.4-1-1V32c0-0.6,0.4-1,1-1h30c0.6,0,1,0.4,1,1v16C165,48.6,164.6,49,164,49z M135,47
				h28V33h-28V47z"/>
		</g>
		<g>
			<path class="st2" d="M149,45c-2.8,0-5-2.2-5-5s2.2-5,5-5s5,2.2,5,5S151.8,45,149,45z M149,37c-1.7,0-3,1.3-3,3s1.3,3,3,3
				s3-1.3,3-3S150.7,37,149,37z"/>
		</g>
		<g>
			<path class="st9" d="M135,33v1v12v1h28v-1V34v-1H135z M139,46c0-1.7-1.3-3-3-3v-6c1.7,0,3-1.3,3-3h20c0,1.7,1.3,3,3,3v6
				c-1.7,0-3,1.3-3,3H139z"/>
		</g>
		<g>
			<circle class="st2" cx="158" cy="40" r="1"/>
		</g>
		<g>
			<circle class="st2" cx="140" cy="40" r="1"/>
		</g>
	</g>
	<g>
		<g>
			<rect x="130" y="29" class="st8" width="28" height="14"/>
			<path class="st2" d="M159,45h-30c-0.6,0-1-0.4-1-1V28c0-0.6,0.4-1,1-1h30c0.6,0,1,0.4,1,1v16C160,44.6,159.6,45,159,45z M130,43
				h28V29h-28V43z"/>
		</g>
		<g>
			<path class="st2" d="M144,41c-2.8,0-5-2.2-5-5s2.2-5,5-5s5,2.2,5,5S146.8,41,144,41z M144,33c-1.7,0-3,1.3-3,3s1.3,3,3,3
				s3-1.3,3-3S145.7,33,144,33z"/>
		</g>
		<g>
			<path class="st9" d="M130,29v1v12v1h28v-1V30v-1H130z M134,42c0-1.7-1.3-3-3-3v-6c1.7,0,3-1.3,3-3h20c0,1.7,1.3,3,3,3v6
				c-1.7,0-3,1.3-3,3H134z"/>
		</g>
		<g>
			<circle class="st2" cx="153" cy="36" r="1"/>
		</g>
		<g>
			<circle class="st2" cx="135" cy="36" r="1"/>
		</g>
	</g>
</g>
<g>
	<g>
		<polygon class="st1" points="94,103 82,103 82,41 88,33 94,41 		"/>
		<path class="st2" d="M94,104H82c-0.6,0-1-0.4-1-1V41c0-0.2,0.1-0.4,0.2-0.6l6-8c0.4-0.5,1.2-0.5,1.6,0l6,8
			c0.1,0.2,0.2,0.4,0.2,0.6v62C95,103.6,94.6,104,94,104z M83,102h10V41.3l-5-6.7l-5,6.7V102z"/>
	</g>
	<g>
		<polygon class="st3" points="88,102 83,102 83,42 		"/>
	</g>
	<g>
		<rect x="74" y="59" class="st10" width="8" height="44"/>
		<path class="st2" d="M82,104h-8c-0.6,0-1-0.4-1-1V59c0-0.6,0.4-1,1-1h8c0.6,0,1,0.4,1,1v44C83,103.6,82.6,104,82,104z M75,102h6
			V60h-6V102z"/>
	</g>
	<g>
		<path class="st2" d="M78,100c-0.6,0-1-0.4-1-1V64c0-0.6,0.4-1,1-1s1,0.4,1,1v35C79,99.6,78.6,100,78,100z"/>
	</g>
	<g>
		<rect x="94" y="59" class="st1" width="8" height="44"/>
		<path class="st2" d="M102,104h-8c-0.6,0-1-0.4-1-1V59c0-0.6,0.4-1,1-1h8c0.6,0,1,0.4,1,1v44C103,103.6,102.6,104,102,104z M95,102
			h6V60h-6V102z"/>
	</g>
	<g>
		<path class="st2" d="M98,80c-0.6,0-1-0.4-1-1V64c0-0.6,0.4-1,1-1s1,0.4,1,1v15C99,79.6,98.6,80,98,80z"/>
	</g>
	<g>
		<path class="st2" d="M90,80c-0.6,0-1-0.4-1-1V64c0-0.6,0.4-1,1-1s1,0.4,1,1v15C91,79.6,90.6,80,90,80z"/>
	</g>
	<g>
		<path class="st2" d="M86,80c-0.6,0-1-0.4-1-1V64c0-0.6,0.4-1,1-1s1,0.4,1,1v15C87,79.6,86.6,80,86,80z"/>
	</g>
	<g>
		<path class="st2" d="M98,100c-0.6,0-1-0.4-1-1V84c0-0.6,0.4-1,1-1s1,0.4,1,1v15C99,99.6,98.6,100,98,100z"/>
	</g>
	<g>
		<path class="st2" d="M90,60c-0.6,0-1-0.4-1-1V44c0-0.6-0.4-1-1-1s-1,0.4-1,1v15c0,0.6-0.4,1-1,1s-1-0.4-1-1V44c0-1.7,1.3-3,3-3
			s3,1.3,3,3v15C91,59.6,90.6,60,90,60z"/>
	</g>
	<g>
		<path class="st2" d="M95,42h-1c-0.6,0-1-0.4-1-1s0.4-1,1-1h1c0.6,0,1,0.4,1,1S95.6,42,95,42z"/>
	</g>
	<g>
		<path class="st2" d="M103,60h-1c-0.6,0-1-0.4-1-1s0.4-1,1-1h1c0.6,0,1,0.4,1,1S103.6,60,103,60z"/>
	</g>
	<g>
		<path class="st2" d="M82,42h-1c-0.6,0-1-0.4-1-1s0.4-1,1-1h1c0.6,0,1,0.4,1,1S82.6,42,82,42z"/>
	</g>
	<g>
		<path class="st2" d="M88,34c-0.6,0-1-0.4-1-1v-4c0-0.6,0.4-1,1-1s1,0.4,1,1v4C89,33.6,88.6,34,88,34z"/>
	</g>
	<g>
		<path class="st2" d="M90,100c-0.6,0-1-0.4-1-1V84c0-0.6,0.4-1,1-1s1,0.4,1,1v15C91,99.6,90.6,100,90,100z"/>
	</g>
	<g>
		<path class="st2" d="M86,100c-0.6,0-1-0.4-1-1V84c0-0.6,0.4-1,1-1s1,0.4,1,1v15C87,99.6,86.6,100,86,100z"/>
	</g>
</g>
<g>
	<g>
		<polygon class="st11" points="119,51 112,53 105,51 105,43 119,43 		"/>
		<path class="st12" d="M112,70.5c-0.4,0-0.8-0.3-0.9-0.6l-7-18.5c0-0.1-0.1-0.2-0.1-0.4v-8c0-0.6,0.4-1,1-1h14c0.6,0,1,0.4,1,1v8
			c0,0.1,0,0.2-0.1,0.4l-7,18.5C112.8,70.3,112.4,70.5,112,70.5z M106,50.8l6,15.9l6-15.9V44h-12V50.8z M119,51L119,51L119,51z"/>
	</g>
	<g>
		<path class="st13" d="M116,44h-10v1.7l2,1.2c1.1,0.7,2.5,1.1,3.8,1.1h0.5c0.2,0,0.5,0,0.7,0c1.6-0.2,3.1,1,3.1,2.7v0l-5,5.7
			l1,11.7l6-17.4v-4.9V44H116z"/>
	</g>
	<g>
		<path class="st14" d="M91,69.5l0.7-15.7c0.2-1.7,1.4-3,3.1-3.4L105,48l7,5l7-5l10.3,2.4c1.6,0.4,2.9,1.7,3.1,3.4l0.7,15.7
			C123.6,72.2,100.4,72.2,91,69.5z"/>
		<path class="st12" d="M112,72.5c-8.3,0-16.5-0.7-21.3-2c-0.4-0.1-0.7-0.5-0.7-1l0.7-15.7c0.3-2.2,1.8-3.9,3.8-4.3l10.3-2.4
			c0.3-0.1,0.6,0,0.8,0.2l6.4,4.6l6.4-4.6c0.2-0.2,0.5-0.2,0.8-0.2l10.3,2.4c2,0.5,3.6,2.2,3.8,4.3l0.7,15.8c0,0.5-0.3,0.9-0.7,1
			C128.5,71.8,120.3,72.5,112,72.5z M92,68.8c9.5,2.4,30.5,2.4,39.9,0l-0.6-14.9c-0.1-1.2-1.1-2.2-2.3-2.5l-9.8-2.3l-6.7,4.7
			c-0.3,0.2-0.8,0.2-1.2,0l-6.6-4.7l-9.9,2.3c-1.2,0.3-2.1,1.3-2.3,2.6L92,68.8z"/>
	</g>
	<g>
		<path class="st11" d="M123,30c0-6.1-4.9-11-11-11s-11,4.9-11,11h-1v2c0,1.1,0.9,2,2,2l0,0v3.7c0,2.1,1.1,4,2.8,5.1l3.7,2.3
			c1,0.6,2.1,0.9,3.3,0.9h0.5c1.2,0,2.3-0.3,3.3-0.9l3.7-2.3c1.8-1.1,2.8-3,2.8-5.1V34l0,0c1.1,0,2-0.9,2-2v-2H123z"/>
		<path class="st12" d="M112.3,47h-0.5c-1.3,0-2.7-0.4-3.8-1.1l-3.7-2.3c-2.1-1.3-3.3-3.5-3.3-5.9v-2.8c-1.2-0.4-2-1.5-2-2.8v-2
			c0-0.6,0.4-1,1-1h0c0.5-6.2,5.7-11,12-11s11.4,4.8,12,11h0c0.6,0,1,0.4,1,1v2c0,1.3-0.8,2.4-2,2.8v2.8c0,2.4-1.2,4.6-3.3,5.9
			l-3.7,2.3C114.9,46.6,113.6,47,112.3,47z M101,31v1c0,0.6,0.4,1,1,1c0.6,0,1,0.4,1,1v3.7c0,1.7,0.9,3.3,2.4,4.2l3.7,2.3
			c0.8,0.5,1.8,0.8,2.7,0.8h0.5c1,0,1.9-0.3,2.7-0.8l3.7-2.3c1.5-0.9,2.3-2.5,2.3-4.2V34c0-0.6,0.4-1,1-1c0.6,0,1-0.4,1-1v-1
			c-0.6,0-1-0.4-1-1c0-5.5-4.5-10-10-10s-10,4.5-10,10C102,30.6,101.6,31,101,31z M124,30L124,30L124,30z"/>
	</g>
	<path class="st12" d="M114.9,39.6c-0.2-0.4-0.5-0.6-0.9-0.6h-4c-0.4,0-0.7,0.2-0.9,0.6s-0.1,0.8,0.1,1.1c0.7,0.9,1.7,1.3,2.7,1.4
		c0,0,0,0,0,0c1,0,2.1-0.5,2.8-1.4C115,40.3,115.1,39.9,114.9,39.6z"/>
	<g>
		<circle class="st12" cx="108.5" cy="32.5" r="1.5"/>
	</g>
	<g>
		<circle class="st12" cx="115.5" cy="32.5" r="1.5"/>
	</g>
	<g>
		<path class="st13" d="M122.2,30.6c-0.1-0.1-0.1-0.2-0.1-0.2c0-0.1-0.1-0.2-0.1-0.3c0-0.1,0-0.1,0-0.2c0-0.3,0-0.6,0-0.9
			c0,0,0-0.1,0-0.1c-0.6-5-4.8-8.8-9.9-8.8c-5.5,0-10,4.5-10,10c2.5,0,5-0.8,7.1-2.2c0.5-0.3,1.1-0.3,1.5,0.1c2,1.7,4.6,2.8,7.2,3
			c0.6,0.1,1.1,0.6,1.1,1.2c0,2.8,0,9.5,0,9.5c1.3-0.9,2-2.4,2-4l0-3.7c0-0.5,0.4-1,1-1c0.6,0,1-0.4,1-1v-1
			C122.7,31,122.4,30.8,122.2,30.6z"/>
	</g>
	<g>
		<polygon class="st15" points="112,57 109,52 115,52 		"/>
		<path class="st12" d="M112,58c-0.4,0-0.7-0.2-0.9-0.5l-3-5c-0.2-0.3-0.2-0.7,0-1s0.5-0.5,0.9-0.5h6c0.4,0,0.7,0.2,0.9,0.5
			s0.2,0.7,0,1l-3,5C112.7,57.8,112.4,58,112,58z M110.8,53l1.2,2.1l1.2-2.1H110.8z"/>
	</g>
	<g>
		<polygon class="st14" points="116,55 112,52 120,45 123,49 		"/>
		<path class="st12" d="M116,56c-0.2,0-0.4-0.1-0.6-0.2l-4-3c-0.2-0.2-0.4-0.5-0.4-0.8c0-0.3,0.1-0.6,0.3-0.8l8-7
			c0.2-0.2,0.5-0.3,0.8-0.2c0.3,0,0.5,0.2,0.7,0.4l3,4c0.3,0.4,0.3,1-0.2,1.4l-7,6C116.5,55.9,116.2,56,116,56z M113.6,51.9l2.4,1.8
			l5.7-4.9l-1.8-2.4L113.6,51.9z"/>
	</g>
	<g>
		<polygon class="st14" points="108,55 112,52 104,45 101,49 		"/>
		<path class="st12" d="M108,56c-0.2,0-0.5-0.1-0.7-0.2l-7-6c-0.4-0.3-0.5-0.9-0.1-1.4l3-4c0.2-0.2,0.4-0.4,0.7-0.4
			c0.3,0,0.6,0.1,0.8,0.2l8,7c0.2,0.2,0.4,0.5,0.3,0.8c0,0.3-0.2,0.6-0.4,0.8l-4,3C108.4,55.9,108.2,56,108,56z M102.4,48.9l5.7,4.9
			l2.4-1.8l-6.2-5.5L102.4,48.9z"/>
	</g>
	<g>
		<path class="st15" d="M115,72h-6v-7.8c0-2.7,1.1-5.3,3-7.2v0v0c1.9,1.9,3,4.5,3,7.2V72z"/>
		<path class="st12" d="M115,73h-6c-0.6,0-1-0.4-1-1v-7.8c0-3,1.2-5.8,3.3-7.9c0.4-0.4,1-0.4,1.4,0c2.1,2.1,3.3,4.9,3.3,7.9V72
			C116,72.6,115.6,73,115,73z M110,71h4v-6.8c0-2.1-0.7-4.1-2-5.7c-1.3,1.6-2,3.6-2,5.7V71z"/>
	</g>
	<g>
		<path class="st12" d="M120.4,43H117c-0.6,0-1-0.4-1-1s0.4-1,1-1h3.4c2,0,3.6-1.6,3.6-3.6V35c0-0.6,0.4-1,1-1s1,0.4,1,1v2.4
			C126,40.5,123.5,43,120.4,43z"/>
	</g>
	<g>
		<circle class="st16" cx="116" cy="42" r="1"/>
		<path class="st17" d="M116,45c-1.7,0-3-1.3-3-3s1.3-3,3-3s3,1.3,3,3S117.7,45,116,45z M116,41c-0.6,0-1,0.4-1,1s0.4,1,1,1
			s1-0.4,1-1S116.6,41,116,41z"/>
	</g>
	<g>
		<path class="st12" d="M124,32c-0.6,0-1-0.4-1-1v-7c0-2.2-1.8-4-4-4h-14c-2.2,0-4,1.8-4,4v7c0,0.6-0.4,1-1,1c-0.6,0-1-0.4-1-1v-7
			c0-3.3,2.7-6,6-6h14c3.3,0,6,2.7,6,6v7C125,31.6,124.6,32,124,32z"/>
	</g>
	<g>
		<path class="st17" d="M112,19c-0.6,0-1-0.4-1-1c0-1.7,1.3-3,3-3c0.6,0,1,0.4,1,1s-0.4,1-1,1c-0.6,0-1,0.4-1,1
			C113,18.6,112.6,19,112,19z"/>
	</g>
	<g>
		<path class="st17" d="M112,18c-0.6,0-1-0.4-1-1c0-0.6-0.4-1-1-1c-0.6,0-1-0.4-1-1s0.4-1,1-1c1.7,0,3,1.3,3,3
			C113,17.6,112.6,18,112,18z"/>
	</g>
	<path class="st18" d="M125,30c0-0.6-0.4-1-1-1h-1v5h1c0.6,0,1-0.4,1-1V30z"/>
	<path class="st12" d="M124,36h-2c-0.6,0-1-0.4-1-1v-7c0-0.6,0.4-1,1-1h2c1.7,0,3,1.3,3,3v3C127,34.7,125.7,36,124,36z M123,34h1
		c0.6,0,1-0.4,1-1v-3c0-0.6-0.4-1-1-1h-1V34z"/>
	<path class="st18" d="M100,34h1v-5h-1c-0.6,0-1,0.4-1,1v3C99,33.6,99.4,34,100,34z"/>
	<path class="st12" d="M102,36h-2c-1.7,0-3-1.3-3-3v-3c0-1.7,1.3-3,3-3h2c0.6,0,1,0.4,1,1v7C103,35.6,102.6,36,102,36z M100,29
		c-0.6,0-1,0.4-1,1v3c0,0.6,0.4,1,1,1h1v-5H100z"/>
	<g>
		<rect x="123" y="29" class="st19" width="1" height="5"/>
	</g>
	<g>
		<rect x="100" y="29" class="st19" width="1" height="5"/>
	</g>
	<g>
		<path class="st16" d="M123,28.3c-0.4-5.8-5.1-10.3-11-10.3c-5.7,0-10.4,4.4-10.9,10c0.3,0,0.6,0,0.9,0c3.1,0,5.9-1.2,8-3.1
			c2.2,2.5,5.4,4.1,9,4.1C120.4,29,121.7,28.8,123,28.3z"/>
		<path class="st17" d="M119,30c-3.4,0-6.7-1.3-9.1-3.7c-2.3,1.8-5,2.7-7.9,2.7c-0.3,0-0.7,0-1-0.1c-0.3,0-0.5-0.1-0.7-0.4
			c-0.2-0.2-0.3-0.5-0.2-0.7c0.6-6.2,5.7-10.9,11.9-10.9c6.3,0,11.6,4.9,12,11.3c0,0.4-0.2,0.9-0.7,1C121.9,29.8,120.4,30,119,30z
			 M110,23.9C110,23.9,110,23.9,110,23.9c0.3,0,0.6,0.1,0.8,0.3c2.7,3.1,7.1,4.5,11.1,3.3c-0.7-4.9-4.9-8.6-9.9-8.6
			c-4.8,0-8.9,3.4-9.8,8c2.6,0,5.2-1,7.1-2.8C109.5,24,109.8,23.9,110,23.9z"/>
	</g>
	<g>
		<g>
			<path class="st20" d="M119.6,28c0.8,0,1.5-0.2,2.3-0.4c-0.7-4.8-4.8-8.5-9.7-8.6C116,20.4,119,23.8,119.6,28z"/>
		</g>
	</g>
	<g>
		<path class="st17" d="M119,30c-4.6,0-8.9-2.5-11.3-6.5c-0.3-0.5-0.1-1.1,0.4-1.4c0.5-0.3,1.1-0.1,1.4,0.4c2,3.4,5.6,5.5,9.5,5.5
			c0.6,0,1,0.4,1,1S119.6,30,119,30z"/>
	</g>
</g>
<g>
	<g>
		<rect x="38" y="43" class="st1" width="24" height="42"/>
		<path class="st2" d="M62,86H38c-0.6,0-1-0.4-1-1V43c0-0.6,0.4-1,1-1h24c0.6,0,1,0.4,1,1v42C63,85.6,62.6,86,62,86z M39,84h22V44
			H39V84z"/>
	</g>
	<rect x="45" y="40" class="st1" width="10" height="2"/>
	<path class="st2" d="M56,38h-4v-4c0-0.7-0.4-1.4-1-1.7V20c0-0.6-0.4-1-1-1s-1,0.4-1,1v12.3c-0.6,0.3-1,1-1,1.7v4h-4
		c-0.6,0-1,0.4-1,1v4c0,0.6,0.4,1,1,1h12c0.6,0,1-0.4,1-1v-4C57,38.4,56.6,38,56,38z M55,42H45v-2h10V42z"/>
	<g>
		<rect x="39" y="90" class="st1" width="22" height="12"/>
		<path class="st2" d="M62,104H38c-0.6,0-1-0.4-1-1V89c0-0.6,0.4-1,1-1h24c0.6,0,1,0.4,1,1v14C63,103.6,62.6,104,62,104z M39,102h22
			V90H39V102z"/>
	</g>
	<g>
		<rect x="46" y="95" class="st6" width="8" height="7"/>
		<path class="st2" d="M55,104H45c-0.6,0-1-0.4-1-1v-9c0-0.6,0.4-1,1-1h10c0.6,0,1,0.4,1,1v9C56,103.6,55.6,104,55,104z M46,102h8
			v-7h-8V102z"/>
	</g>
	<g>
		<path class="st2" d="M50,104c-0.6,0-1-0.4-1-1v-9c0-0.6,0.4-1,1-1s1,0.4,1,1v9C51,103.6,50.6,104,50,104z"/>
	</g>
	<rect x="42" y="86" class="st1" width="1" height="2"/>
	<rect x="57" y="86" class="st1" width="1" height="2"/>
	<g>
		<path class="st1" d="M62,85h-3V43c0-0.8,0.7-1.5,1.5-1.5l0,0c0.8,0,1.5,0.7,1.5,1.5V85z"/>
		<path class="st2" d="M62,86h-3c-0.6,0-1-0.4-1-1V43c0-1.4,1.1-2.5,2.5-2.5S63,41.6,63,43v42C63,85.6,62.6,86,62,86z M60,84h1V43
			c0-0.3-0.2-0.5-0.5-0.5S60,42.7,60,43V84z"/>
	</g>
	<g>
		<path class="st1" d="M41,85h-3V42.5c0-0.8,0.7-1.5,1.5-1.5l0,0c0.8,0,1.5,0.7,1.5,1.5V85z"/>
		<path class="st2" d="M41,86h-3c-0.6,0-1-0.4-1-1V42.5c0-1.4,1.1-2.5,2.5-2.5s2.5,1.1,2.5,2.5V85C42,85.6,41.6,86,41,86z M39,84h1
			V42.5c0-0.3-0.2-0.5-0.5-0.5S39,42.2,39,42.5V84z"/>
	</g>
	<g>
		<rect x="45" y="86" class="st6" width="10" height="2"/>
		<path class="st2" d="M59,84h-3H44h-3c-0.6,0-1,0.4-1,1v4c0,0.6,0.4,1,1,1h3h12h3c0.6,0,1-0.4,1-1v-4C60,84.4,59.6,84,59,84z
			 M42,86h1v2h-1V86z M45,86h10v2H45V86z M58,88h-1v-2h1V88z"/>
	</g>
	<g>
		<rect x="42" y="61" class="st6" width="16" height="6"/>
		<path class="st2" d="M59,69H41c-0.6,0-1-0.4-1-1v-8c0-0.6,0.4-1,1-1h18c0.6,0,1,0.4,1,1v8C60,68.6,59.6,69,59,69z M42,67h16v-6H42
			V67z"/>
	</g>
	<g>
		<rect x="42" y="73" class="st6" width="16" height="6"/>
		<path class="st2" d="M59,81H41c-0.6,0-1-0.4-1-1v-8c0-0.6,0.4-1,1-1h18c0.6,0,1,0.4,1,1v8C60,80.6,59.6,81,59,81z M42,79h16v-6H42
			V79z"/>
	</g>
	<g>
		<rect x="42" y="49" class="st6" width="16" height="6"/>
		<path class="st2" d="M59,57H41c-0.6,0-1-0.4-1-1v-8c0-0.6,0.4-1,1-1h18c0.6,0,1,0.4,1,1v8C60,56.6,59.6,57,59,57z M42,55h16v-6H42
			V55z"/>
	</g>
	<g>
		<polygon class="st21" points="51,79 48,79 51,73 54,73 		"/>
	</g>
	<g>
		<polygon class="st21" points="54,79 52,79 55,73 57,73 		"/>
	</g>
	<g>
		<polygon class="st21" points="49,67 46,67 49,61 52,61 		"/>
	</g>
	<g>
		<polygon class="st21" points="52,67 50,67 53,61 55,61 		"/>
	</g>
	<g>
		<polygon class="st21" points="52,55 49,55 52,49 55,49 		"/>
	</g>
	<g>
		<polygon class="st21" points="55,55 53,55 56,49 58,49 		"/>
	</g>
	<g>
		<rect x="42" y="44" class="st3" width="1" height="3"/>
	</g>
	<g>
		<rect x="42" y="57" class="st3" width="1" height="2"/>
	</g>
	<g>
		<rect x="42" y="86" class="st3" width="1" height="1"/>
	</g>
	<g>
		<rect x="57" y="86" class="st3" width="1" height="1"/>
	</g>
	<g>
		<rect x="45" y="86" class="st22" width="10" height="1"/>
	</g>
	<g>
		<polygon class="st3" points="43,69 42,69 42,71 43,71 43,70 58,70 58,69 		"/>
	</g>
	<g>
		<rect x="43" y="57" class="st3" width="15" height="1"/>
	</g>
	<g>
		<polygon class="st3" points="43,81 42,81 42,84 43,84 43,82 58,82 58,81 		"/>
	</g>
</g>
<g>
	<polygon class="st6" points="62,103 82,103 82,24 62,32 	"/>
	<path class="st2" d="M82.6,23.2c-0.3-0.2-0.6-0.2-0.9-0.1l-20,8C61.2,31.2,61,31.6,61,32v71c0,0.6,0.4,1,1,1h20c0.6,0,1-0.4,1-1V24
		C83,23.7,82.8,23.4,82.6,23.2z M63,85v-3h18v3H63z M81,87v3H63v-3H81z M63,80v-3h18v3H63z M63,75v-3h18v3H63z M63,70v-3h18v3H63z
		 M63,65v-3h18v3H63z M63,60v-3h18v3H63z M63,55v-3h18v3H63z M63,50v-3h18v3H63z M63,45v-3h18v3H63z M63,40v-3h18v3H63z M63,92h18v3
		H63V92z M81,25.5V35H63v-2.3L81,25.5z M63,102v-5h18v5H63z"/>
	<g>
		<path class="st2" d="M78,33h-3c-0.6,0-1-0.4-1-1s0.4-1,1-1h3c0.6,0,1,0.4,1,1S78.6,33,78,33z"/>
	</g>
	<g>
		<path class="st2" d="M76,26.4c-0.4,0-0.8-0.2-0.9-0.6c-0.2-0.5,0-1.1,0.6-1.3l3.5-1.4c1.1-0.5,1.9-1.6,1.9-2.8V14c0-0.6,0.4-1,1-1
			s1,0.4,1,1v6.3c0,2.1-1.2,3.9-3.1,4.6l-3.5,1.4C76.2,26.4,76.1,26.4,76,26.4z"/>
	</g>
	<g>
		<path class="st2" d="M82,26c-0.6,0-1-0.4-1-1v-5c0-0.6,0.4-1,1-1s1,0.4,1,1v5C83,25.6,82.6,26,82,26z"/>
	</g>
</g>
<g>
	<circle class="st23" cx="4" cy="41" r="1"/>
</g>
<g>
	<circle class="st23" cx="11" cy="50" r="1"/>
</g>
<g>
	<circle class="st23" cx="176" cy="20" r="1"/>
</g>
<g>
	<circle class="st23" cx="141" cy="10" r="1"/>
</g>
<g>
	<circle class="st23" cx="117" cy="7" r="1"/>
</g>
<g>
	<circle class="st24" cx="187" cy="39" r="1"/>
</g>
<g>
	<circle class="st24" cx="187" cy="19" r="1"/>
</g>
<g>
	<circle class="st24" cx="78" cy="5" r="1"/>
</g>
<g>
	<circle class="st18" cx="14" cy="35" r="1"/>
</g>
<g>
	<circle class="st18" cx="66" cy="10" r="1"/>
</g>
<g>
	<circle class="st18" cx="168" cy="14" r="1"/>
</g>
<g>
	<circle class="st18" cx="104" cy="11" r="1"/>
</g>
<g>
	<path class="st25" d="M179,35c-1.7,0-3-1.3-3-3s1.3-3,3-3s3,1.3,3,3S180.7,35,179,35z M179,31c-0.6,0-1,0.4-1,1s0.4,1,1,1
		s1-0.4,1-1S179.6,31,179,31z"/>
</g>
<g>
	<path class="st25" d="M91,16c-1.7,0-3-1.3-3-3s1.3-3,3-3s3,1.3,3,3S92.7,16,91,16z M91,12c-0.6,0-1,0.4-1,1s0.4,1,1,1s1-0.4,1-1
		S91.6,12,91,12z"/>
</g>
<g>
	<path class="st18" d="M64,22c-1.7,0-3-1.3-3-3s1.3-3,3-3s3,1.3,3,3S65.7,22,64,22z M64,18c-0.6,0-1,0.4-1,1s0.4,1,1,1s1-0.4,1-1
		S64.6,18,64,18z"/>
</g>
<g>
	<path class="st18" d="M192,61c-1.7,0-3-1.3-3-3s1.3-3,3-3s3,1.3,3,3S193.7,61,192,61z M192,57c-0.6,0-1,0.4-1,1s0.4,1,1,1
		s1-0.4,1-1S192.6,57,192,57z"/>
</g>
<g>
	<path class="st24" d="M12,64c-1.7,0-3-1.3-3-3s1.3-3,3-3s3,1.3,3,3S13.7,64,12,64z M12,60c-0.6,0-1,0.4-1,1s0.4,1,1,1s1-0.4,1-1
		S12.6,60,12,60z"/>
</g>
<path class="st25" d="M155.9,11.5l0.8-0.8c0.4-0.4,0.4-1,0-1.4s-1-0.4-1.4,0l-0.8,0.8l-0.8-0.8c-0.4-0.4-1-0.4-1.4,0s-0.4,1,0,1.4
	l0.8,0.8l-0.8,0.8c-0.4,0.4-0.4,1,0,1.4c0.2,0.2,0.5,0.3,0.7,0.3s0.5-0.1,0.7-0.3l0.8-0.8l0.8,0.8c0.2,0.2,0.5,0.3,0.7,0.3
	s0.5-0.1,0.7-0.3c0.4-0.4,0.4-1,0-1.4L155.9,11.5z"/>
<path class="st25" d="M53.9,10.5l0.8-0.8c0.4-0.4,0.4-1,0-1.4s-1-0.4-1.4,0l-0.8,0.8l-0.8-0.8c-0.4-0.4-1-0.4-1.4,0s-0.4,1,0,1.4
	l0.8,0.8l-0.8,0.8c-0.4,0.4-0.4,1,0,1.4c0.2,0.2,0.5,0.3,0.7,0.3s0.5-0.1,0.7-0.3l0.8-0.8l0.8,0.8c0.2,0.2,0.5,0.3,0.7,0.3
	s0.5-0.1,0.7-0.3c0.4-0.4,0.4-1,0-1.4L53.9,10.5z"/>
<path class="st18" d="M17.9,21.5l0.8-0.8c0.4-0.4,0.4-1,0-1.4s-1-0.4-1.4,0l-0.8,0.8l-0.8-0.8c-0.4-0.4-1-0.4-1.4,0s-0.4,1,0,1.4
	l0.8,0.8l-0.8,0.8c-0.4,0.4-0.4,1,0,1.4c0.2,0.2,0.5,0.3,0.7,0.3s0.5-0.1,0.7-0.3l0.8-0.8l0.8,0.8c0.2,0.2,0.5,0.3,0.7,0.3
	s0.5-0.1,0.7-0.3c0.4-0.4,0.4-1,0-1.4L17.9,21.5z"/>
<path class="st18" d="M99.9,2.5l0.8-0.8c0.4-0.4,0.4-1,0-1.4s-1-0.4-1.4,0l-0.8,0.8l-0.8-0.8c-0.4-0.4-1-0.4-1.4,0s-0.4,1,0,1.4
	l0.8,0.8l-0.8,0.8c-0.4,0.4-0.4,1,0,1.4C96.5,4.9,96.7,5,97,5s0.5-0.1,0.7-0.3l0.8-0.8l0.8,0.8C99.5,4.9,99.7,5,100,5
	s0.5-0.1,0.7-0.3c0.4-0.4,0.4-1,0-1.4L99.9,2.5z"/>
<path class="st24" d="M126.9,8.5l0.8-0.8c0.4-0.4,0.4-1,0-1.4s-1-0.4-1.4,0l-0.8,0.8l-0.8-0.8c-0.4-0.4-1-0.4-1.4,0s-0.4,1,0,1.4
	l0.8,0.8l-0.8,0.8c-0.4,0.4-0.4,1,0,1.4c0.2,0.2,0.5,0.3,0.7,0.3s0.5-0.1,0.7-0.3l0.8-0.8l0.8,0.8c0.2,0.2,0.5,0.3,0.7,0.3
	s0.5-0.1,0.7-0.3c0.4-0.4,0.4-1,0-1.4L126.9,8.5z"/>
<g>
	<circle class="st12" cx="186" cy="87" r="1"/>
</g>
<g>
	<circle class="st12" cx="183" cy="87" r="1"/>
</g>
<g>
	<circle class="st12" cx="189" cy="87" r="1"/>
</g>
<g>
	<circle class="st12" cx="189" cy="84" r="1"/>
</g>
<g>
	<circle class="st12" cx="189" cy="81" r="1"/>
</g>
<g>
	<circle class="st12" cx="189" cy="78" r="1"/>
</g>
<g>
	<circle class="st12" cx="189" cy="75" r="1"/>
</g>
<g>
	<circle class="st12" cx="189" cy="72" r="1"/>
</g>
<g>
	<circle class="st12" cx="189" cy="69" r="1"/>
</g>
<g>
	<circle class="st12" cx="186" cy="69" r="1"/>
</g>
<g>
	<path class="st12" d="M184,104H14c-0.6,0-1-0.4-1-1s0.4-1,1-1h170c0.6,0,1,0.4,1,1S184.6,104,184,104z"/>
</g>
<g>
	<circle class="st12" cx="197" cy="103" r="1"/>
</g>
<g>
	<path class="st12" d="M193,104h-5c-0.6,0-1-0.4-1-1s0.4-1,1-1h5c0.6,0,1,0.4,1,1S193.6,104,193,104z"/>
</g>
<g>
	<circle class="st12" cx="1" cy="103" r="1"/>
</g>
<g>
	<path class="st12" d="M10,104H5c-0.6,0-1-0.4-1-1s0.4-1,1-1h5c0.6,0,1,0.4,1,1S10.6,104,10,104z"/>
</g>
<g>
	<g>
		<g>
			<path class="st26" d="M74,58H56c-1.1,0-2-0.9-2-2V33c0-1.1,0.9-2,2-2h18c1.1,0,2,0.9,2,2v23C76,57.1,75.1,58,74,58z"/>
			<path class="st12" d="M74,59H56c-1.7,0-3-1.3-3-3V33c0-1.7,1.3-3,3-3h18c1.7,0,3,1.3,3,3v23C77,57.7,75.7,59,74,59z M56,32
				c-0.6,0-1,0.4-1,1v23c0,0.6,0.4,1,1,1h18c0.6,0,1-0.4,1-1V33c0-0.6-0.4-1-1-1H56z"/>
		</g>
	</g>
	<g>
		<path class="st27" d="M74,32v23c0,0.6-0.4,1-1,1H55c0,0.6,0.4,1,1,1h18c0.6,0,1-0.4,1-1V33C75,32.4,74.6,32,74,32z"/>
	</g>
	<g>
		<rect x="59" y="36" class="st28" width="12" height="5"/>
		<path class="st12" d="M72,43H58c-0.6,0-1-0.4-1-1v-7c0-0.6,0.4-1,1-1h14c0.6,0,1,0.4,1,1v7C73,42.6,72.6,43,72,43z M59,41h12v-5
			H59V41z"/>
	</g>
	<g>
		<g>
			<path class="st29" d="M59,45L59,45c-1.1,0-2,0.9-2,2v0c0,1.1,0.9,2,2,2h0c1.1,0,2-0.9,2-2v0C61,45.9,60.1,45,59,45z"/>
		</g>
		<g>
			<path class="st29" d="M65,45L65,45c-1.1,0-2,0.9-2,2v0c0,1.1,0.9,2,2,2h0c1.1,0,2-0.9,2-2v0C67,45.9,66.1,45,65,45z"/>
		</g>
		<g>
			<path class="st29" d="M59,51L59,51c-1.1,0-2,0.9-2,2v0c0,1.1,0.9,2,2,2h0c1.1,0,2-0.9,2-2v0C61,51.9,60.1,51,59,51z"/>
		</g>
		<g>
			<path class="st23" d="M65,51L65,51c-1.1,0-2,0.9-2,2v0c0,1.1,0.9,2,2,2h0c1.1,0,2-0.9,2-2v0C67,51.9,66.1,51,65,51z"/>
		</g>
	</g>
	<g>
		<path class="st19" d="M71,45L71,45c-1.1,0-2,0.9-2,2v6c0,1.1,0.9,2,2,2h0c1.1,0,2-0.9,2-2v-6C73,45.9,72.1,45,71,45z"/>
	</g>
	<g>
		<circle class="st30" cx="71" cy="50" r="1"/>
	</g>
	<g>
		<rect x="59" y="36" class="st31" width="12" height="1"/>
	</g>
</g>
<g>
	<g>
		<path class="st14" d="M29,96H9c-1.1,0-2-0.9-2-2V80h24v14C31,95.1,30.1,96,29,96z"/>
		<path class="st12" d="M29,97H9c-1.7,0-3-1.3-3-3V80c0-0.6,0.4-1,1-1h24c0.6,0,1,0.4,1,1v14C32,95.7,30.7,97,29,97z M8,81v13
			c0,0.6,0.4,1,1,1h20c0.6,0,1-0.4,1-1V81H8z"/>
	</g>
	<g>
		<path class="st32" d="M31,80H7v-3c0-1.1,0.9-2,2-2h20c1.1,0,2,0.9,2,2V80z"/>
		<path class="st12" d="M31,81H7c-0.6,0-1-0.4-1-1v-3c0-1.7,1.3-3,3-3h20c1.7,0,3,1.3,3,3v3C32,80.6,31.6,81,31,81z M8,79h22v-2
			c0-0.6-0.4-1-1-1H9c-0.6,0-1,0.4-1,1V79z"/>
	</g>
	<g>
		<path class="st12" d="M14,78c-0.6,0-1-0.4-1-1v-4c0-0.6,0.4-1,1-1s1,0.4,1,1v4C15,77.6,14.6,78,14,78z"/>
	</g>
	<g>
		<path class="st12" d="M24,78c-0.6,0-1-0.4-1-1v-4c0-0.6,0.4-1,1-1s1,0.4,1,1v4C25,77.6,24.6,78,24,78z"/>
	</g>
	<g>
		<path class="st33" d="M13,87L13,87c-1.1,0-2-0.9-2-2l0,0c0-1.1,0.9-2,2-2h0c1.1,0,2,0.9,2,2l0,0C15,86.1,14.1,87,13,87z"/>
	</g>
	<g>
		<path class="st33" d="M19,87L19,87c-1.1,0-2-0.9-2-2l0,0c0-1.1,0.9-2,2-2h0c1.1,0,2,0.9,2,2l0,0C21,86.1,20.1,87,19,87z"/>
	</g>
	<g>
		<path class="st33" d="M25,87L25,87c-1.1,0-2-0.9-2-2l0,0c0-1.1,0.9-2,2-2h0c1.1,0,2,0.9,2,2l0,0C27,86.1,26.1,87,25,87z"/>
	</g>
	<g>
		<path class="st33" d="M13,93L13,93c-1.1,0-2-0.9-2-2l0,0c0-1.1,0.9-2,2-2h0c1.1,0,2,0.9,2,2l0,0C15,92.1,14.1,93,13,93z"/>
	</g>
	<g>
		<path class="st33" d="M19,93L19,93c-1.1,0-2-0.9-2-2l0,0c0-1.1,0.9-2,2-2h0c1.1,0,2,0.9,2,2l0,0C21,92.1,20.1,93,19,93z"/>
	</g>
	<g>
		<path class="st33" d="M25,93L25,93c-1.1,0-2-0.9-2-2l0,0c0-1.1,0.9-2,2-2h0c1.1,0,2,0.9,2,2l0,0C27,92.1,26.1,93,25,93z"/>
	</g>
	<g>
		<rect x="8" y="81" class="st7" width="22" height="1"/>
	</g>
</g>
<g>
	<g>
		<g>
			<rect x="168" y="100" class="st16" width="12" height="2"/>
			<path class="st17" d="M181,104h-14c-0.6,0-1-0.4-1-1v-4c0-0.6,0.4-1,1-1h14c0.6,0,1,0.4,1,1v4C182,103.6,181.6,104,181,104z
				 M168,102h12v-2h-12V102z"/>
		</g>
		<g>
			<rect x="169" y="100" class="st34" width="3" height="2"/>
		</g>
		<g>
			<rect x="177" y="100" class="st20" width="3" height="2"/>
		</g>
	</g>
	<g>
		<g>
			<rect x="166" y="96" class="st16" width="12" height="2"/>
			<path class="st17" d="M179,100h-14c-0.6,0-1-0.4-1-1v-4c0-0.6,0.4-1,1-1h14c0.6,0,1,0.4,1,1v4C180,99.6,179.6,100,179,100z
				 M166,98h12v-2h-12V98z"/>
		</g>
		<g>
			<rect x="167" y="96" class="st34" width="3" height="2"/>
		</g>
		<g>
			<rect x="175" y="96" class="st20" width="3" height="2"/>
		</g>
	</g>
	<g>
		<g>
			<rect x="168" y="92" class="st16" width="12" height="2"/>
			<path class="st17" d="M181,96h-14c-0.6,0-1-0.4-1-1v-4c0-0.6,0.4-1,1-1h14c0.6,0,1,0.4,1,1v4C182,95.6,181.6,96,181,96z M168,94
				h12v-2h-12V94z"/>
		</g>
		<g>
			<rect x="169" y="92" class="st34" width="3" height="2"/>
		</g>
		<g>
			<rect x="177" y="92" class="st20" width="3" height="2"/>
		</g>
	</g>
	<g>
		<g>
			<rect x="166" y="88" class="st16" width="12" height="2"/>
			<path class="st17" d="M179,92h-14c-0.6,0-1-0.4-1-1v-4c0-0.6,0.4-1,1-1h14c0.6,0,1,0.4,1,1v4C180,91.6,179.6,92,179,92z M166,90
				h12v-2h-12V90z"/>
		</g>
		<g>
			<rect x="167" y="88" class="st34" width="3" height="2"/>
		</g>
		<g>
			<rect x="175" y="88" class="st20" width="3" height="2"/>
		</g>
	</g>
</g>
<g>
	<path class="st26" d="M60,102h12c0.6,0,1-0.4,1-1V77c0-0.6-0.4-1-1-1H60c-0.6,0-1,0.4-1,1v24C59,101.6,59.4,102,60,102z"/>
	<g>
		<rect x="59" y="81" class="st35" width="14" height="15"/>
		<path class="st12" d="M72,74H60c-1.7,0-3,1.3-3,3v3v17v4c0,1.7,1.3,3,3,3h12c1.7,0,3-1.3,3-3v-4V80v-3C75,75.3,73.7,74,72,74z
			 M60,76h12c0.6,0,1,0.4,1,1v2H59v-2C59,76.4,59.4,76,60,76z M73,96H59V81h14V96z M72,102H60c-0.6,0-1-0.4-1-1v-3h14v3
			C73,101.6,72.6,102,72,102z"/>
	</g>
	<g>
		<circle class="st12" cx="66" cy="100" r="1"/>
	</g>
	<g>
		<polygon class="st36" points="66,96 63,96 73,86 73,89 		"/>
	</g>
	<g>
		<polygon class="st36" points="73,96 68,96 73,91 		"/>
	</g>
</g>
<g>
	<g>
		<path class="st15" d="M139.7,18.1c-2.7,0.5-5,2.6-5.5,5.4c-0.2,0.9-0.2,1.8-0.1,2.7c0.3,1.7,0,3.5-0.5,5.2L133,33l1.7-0.6
			c1.7-0.6,3.4-0.8,5.2-0.5c0.8,0.1,1.7,0.1,2.7-0.1c2.7-0.6,4.9-2.8,5.4-5.6C148.7,21.4,144.6,17.3,139.7,18.1z"/>
		<path class="st12" d="M133,34c-0.3,0-0.5-0.1-0.7-0.3c-0.3-0.3-0.4-0.7-0.2-1l0.6-1.7c0.6-1.7,0.7-3.3,0.5-4.7c-0.2-1-0.1-2,0.1-3
			c0.7-3.1,3.2-5.6,6.4-6.1l0,0c2.6-0.5,5.2,0.3,7.1,2.2c1.9,1.9,2.7,4.5,2.2,7.1c-0.6,3.1-3,5.7-6.1,6.4c-1,0.2-2,0.3-3,0.1
			c-1.4-0.2-3-0.1-4.7,0.5l-1.7,0.6C133.2,34,133.1,34,133,34z M139.9,19.1c-2.3,0.4-4.2,2.3-4.7,4.6c-0.2,0.8-0.2,1.5-0.1,2.3
			c0.3,1.7,0.1,3.5-0.5,5.4c1.9-0.6,3.8-0.8,5.5-0.5c0.8,0.1,1.5,0.1,2.3-0.1c2.3-0.5,4.2-2.4,4.6-4.7c0.4-2-0.3-3.9-1.7-5.4
			C143.8,19.3,141.9,18.7,139.9,19.1L139.9,19.1z"/>
	</g>
	<g>
		<path class="st37" d="M145.2,20.8c-0.2-0.2-0.3-0.3-0.5-0.5c1.1,1.3,1.5,3.1,1.2,4.8c-0.4,2.3-2.3,4.2-4.6,4.7
			c-0.8,0.2-1.5,0.2-2.3,0.1c-1.3-0.2-4.3,1-4.5,1.5c1.9-0.6,3.8-0.8,5.5-0.5c0.8,0.1,1.5,0.1,2.3-0.1c2.3-0.5,4.2-2.4,4.6-4.7
			C147.3,24.1,146.7,22.2,145.2,20.8z"/>
	</g>
	<g>
		<circle class="st12" cx="141" cy="25" r="1"/>
	</g>
	<g>
		<circle class="st12" cx="144" cy="25" r="1"/>
	</g>
	<g>
		<circle class="st12" cx="138" cy="25" r="1"/>
	</g>
</g>
<g>
	<g>
		<path class="st12" d="M34,69c-0.6,0-1-0.4-1-1v-7c0-0.6,0.4-1,1-1s1,0.4,1,1v7C35,68.6,34.6,69,34,69z"/>
	</g>
	<g>
		<path class="st12" d="M34,75c-0.6,0-1-0.4-1-1v-3c0-0.6,0.4-1,1-1s1,0.4,1,1v3C35,74.6,34.6,75,34,75z"/>
	</g>
	<path class="st38" d="M42,53H26V28.3c0-5.9,2.4-11.5,6.6-15.6l0,0c0.4-0.4,1-0.6,1.5-0.6h0c0.6,0,1.2,0.2,1.6,0.7l0,0
		c4,4.1,6.3,9.6,6.3,15.4V53z"/>
	<g>
		<path class="st39" d="M35,13.4c-0.5-0.5-1.2-0.5-1.6-0.1c2.4,3.4,3.6,7.5,3.6,11.8V49H27v3h14V28.1C41,22.5,38.9,17.3,35,13.4z"/>
	</g>
	<g>
		<path class="st40" d="M29,58L29,58c0-1.3,0.3-2.6,0.8-3.8l0.6-1.2h7.2l0.6,1.2c0.6,1.2,0.9,2.5,0.9,3.8v0H29z"/>
		<path class="st12" d="M39,59H29c-0.6,0-1-0.4-1-1v-0.1c0-1.4,0.3-2.8,0.9-4.1l0.6-1.2c0.2-0.4,0.5-0.6,0.9-0.6h7.2
			c0.4,0,0.7,0.2,0.9,0.6l0.6,1.2c0.6,1.3,0.9,2.8,0.9,4.2C40,58.6,39.6,59,39,59z M30.1,57h7.9c-0.1-0.8-0.3-1.6-0.7-2.4L37,54H31
			l-0.3,0.6C30.4,55.4,30.2,56.2,30.1,57z"/>
	</g>
	<g>
		<path class="st41" d="M36.7,57L36.7,57l1.3,0c-0.1-0.8-0.3-1.6-0.7-2.4L37,54H31l-0.3,0.6c-0.1,0.1-0.1,0.2-0.1,0.4H34
			C35.2,55,36.3,55.8,36.7,57z"/>
	</g>
	<path class="st40" d="M20,50h6v-9l-3.8,2.5C20.8,44.4,20,46,20,47.7V50z"/>
	<g>
		<path class="st12" d="M38,65c-0.6,0-1-0.4-1-1v-3c0-0.6,0.4-1,1-1s1,0.4,1,1v3C39,64.6,38.6,65,38,65z"/>
	</g>
	<g>
		<path class="st12" d="M30,65c-0.6,0-1-0.4-1-1v-3c0-0.6,0.4-1,1-1s1,0.4,1,1v3C31,64.6,30.6,65,30,65z"/>
	</g>
	<rect x="27" y="49" class="st15" width="14" height="3"/>
	<path class="st40" d="M48,50h-6v-9l3.8,2.5c1.4,0.9,2.2,2.5,2.2,4.2V50z"/>
	<g>
		<circle class="st42" cx="34" cy="32" r="3"/>
		<path class="st12" d="M34,37c-2.8,0-5-2.2-5-5s2.2-5,5-5s5,2.2,5,5S36.8,37,34,37z M34,29c-1.7,0-3,1.3-3,3s1.3,3,3,3s3-1.3,3-3
			S35.7,29,34,29z"/>
	</g>
	<g>
		<path class="st43" d="M32,33c0-1.7,1.3-3,3-3c0.6,0,1.1,0.2,1.6,0.4C36,29.6,35.1,29,34,29c-1.7,0-3,1.3-3,3c0,1.1,0.6,2,1.4,2.6
			C32.2,34.1,32,33.6,32,33z"/>
	</g>
	<g>
		<circle class="st12" cx="34" cy="39" r="1"/>
	</g>
	<g>
		<circle class="st12" cx="34" cy="42" r="1"/>
	</g>
	<g>
		<circle class="st12" cx="34" cy="45" r="1"/>
	</g>
	<g>
		<path class="st15" d="M41.1,22H26.9c1-3.5,3-6.8,5.6-9.4c0.4-0.4,1-0.6,1.5-0.6c0.6,0,1.2,0.2,1.6,0.7l0,0
			C38.3,15.3,40.2,18.5,41.1,22z"/>
	</g>
	<g>
		<path class="st37" d="M37,49v1c0,0.6-0.4,1-1,1h-9v1h14v-2v-1H37z"/>
	</g>
	<g>
		<path class="st41" d="M44,43.5l-1-0.7V48v1h1h3v-1h-2c-0.6,0-1-0.4-1-1V43.5z"/>
	</g>
	<g>
		<path class="st37" d="M35,13.4c-0.5-0.5-1.2-0.5-1.6-0.1c1.6,2.3,2.7,5,3.2,7.7h3.2C38.7,18.2,37.1,15.6,35,13.4z"/>
	</g>
	<g>
		<rect x="21" y="48" class="st41" width="4" height="1"/>
	</g>
</g>
<g>
	<path class="st44" d="M124,103H72c-1.1,0-2-0.9-2-2V65c0-1.1,0.9-2,2-2h52c1.1,0,2,0.9,2,2v36C126,102.1,125.1,103,124,103z"/>
	<path class="st17" d="M124,104H72c-1.7,0-3-1.3-3-3V65c0-1.7,1.3-3,3-3h52c1.7,0,3,1.3,3,3v36C127,102.7,125.7,104,124,104z M72,64
		c-0.6,0-1,0.4-1,1v36c0,0.6,0.4,1,1,1h52c0.6,0,1-0.4,1-1V65c0-0.6-0.4-1-1-1H72z"/>
</g>
<g>
	<path class="st44" d="M89,55v8h3v-7h12v7h3v-8c0-1.1-0.9-2-2-2H91C89.9,53,89,53.9,89,55z"/>
	<path class="st17" d="M107,64h-3c-0.6,0-1-0.4-1-1v-6H93v6c0,0.6-0.4,1-1,1h-3c-0.6,0-1-0.4-1-1v-8c0-1.7,1.3-3,3-3h14
		c1.7,0,3,1.3,3,3v8C108,63.6,107.6,64,107,64z M105,62h1v-7c0-0.6-0.4-1-1-1H91c-0.6,0-1,0.4-1,1v7h1v-6c0-0.6,0.4-1,1-1h12
		c0.6,0,1,0.4,1,1V62z"/>
</g>
<g>
	<path class="st45" d="M124,64h-2v12H71v4.2c0,0,0,0,0,0l22.8,5.3c1.4,0.3,2.8,0.5,4.2,0.5s2.8-0.2,4.2-0.5l16.7-3.9
		c1.6-0.4,3.1,0.9,3.1,2.5V99c0,0.6-0.4,1-1,1H72c-0.6,0-1,0.4-1,1l0,0c0,0.6,0.4,1,1,1h52c0.6,0,1-0.4,1-1V80.2V76V65
		C125,64.4,124.6,64,124,64z"/>
</g>
<g>
	<path class="st45" d="M102,80h-6c-2.2,0-4,1.8-4,4s1.8,4,4,4h6c2.2,0,4-1.8,4-4S104.2,80,102,80z"/>
</g>
<g>
	<path class="st44" d="M124.4,77.4l-22.5,5.2c-1.3,0.3-2.6,0.4-3.9,0.4l0,0c-1.3,0-2.7-0.2-3.9-0.4l-22.5-5.2
		c-0.9-0.2-1.6-1-1.6-1.9V65c0-1.1,0.9-2,2-2h52c1.1,0,2,0.9,2,2v10.4C126,76.3,125.4,77.1,124.4,77.4z"/>
	<path class="st17" d="M98,84c-1.4,0-2.8-0.2-4.2-0.5l-22.5-5.2C70,78,69,76.8,69,75.4V65c0-1.7,1.3-3,3-3h52c1.7,0,3,1.3,3,3v10.4
		c0,1.4-1,2.6-2.3,2.9l-22.5,5.2C100.8,83.8,99.4,84,98,84z M72,64c-0.6,0-1,0.4-1,1v10.4c0,0.5,0.3,0.9,0.8,1l22.5,5.2
		c2.4,0.6,5,0.6,7.4,0l22.5-5.2l0,0c0.5-0.1,0.8-0.5,0.8-1V65c0-0.6-0.4-1-1-1H72z"/>
</g>
<g>
	<path class="st25" d="M101,86h-6c-1.7,0-3-1.3-3-3l0,0c0-1.7,1.3-3,3-3h6c1.7,0,3,1.3,3,3l0,0C104,84.7,102.7,86,101,86z"/>
	<path class="st12" d="M101,87h-6c-2.2,0-4-1.8-4-4s1.8-4,4-4h6c2.2,0,4,1.8,4,4S103.2,87,101,87z M95,81c-1.1,0-2,0.9-2,2
		s0.9,2,2,2h6c1.1,0,2-0.9,2-2s-0.9-2-2-2H95z"/>
</g>
<g>
	<path class="st23" d="M101,81h-6c-1.1,0-2,0.9-2,2h8C102.2,83,102.3,81,101,81C101,81,101,81,101,81z"/>
</g>
<g>
	<path class="st46" d="M125,66H71v-1c0-0.6,0.4-1,1-1h52c0.6,0,1,0.4,1,1V66z"/>
</g>
<g>
	<path class="st12" d="M108,63h-5c-0.6,0-1-0.4-1-1s0.4-1,1-1h5c0.6,0,1,0.4,1,1S108.6,63,108,63z"/>
</g>
<g>
	<path class="st12" d="M93,63h-5c-0.6,0-1-0.4-1-1s0.4-1,1-1h5c0.6,0,1,0.4,1,1S93.6,63,93,63z"/>
</g>
<g>
	<g>
		<path class="st47" d="M180,80h-22c-1.1,0-2-0.9-2-2V46c0-1.1,0.9-2,2-2h22c1.1,0,2,0.9,2,2v32C182,79.1,181.1,80,180,80z"/>
		<path class="st12" d="M180,81h-22c-1.7,0-3-1.3-3-3V46c0-1.7,1.3-3,3-3h22c1.7,0,3,1.3,3,3v32C183,79.7,181.7,81,180,81z M158,45
			c-0.6,0-1,0.4-1,1v32c0,0.6,0.4,1,1,1h22c0.6,0,1-0.4,1-1V46c0-0.6-0.4-1-1-1H158z"/>
	</g>
	<g>
		<path class="st7" d="M177,80h-22c-1.1,0-2-0.9-2-2V46c0-1.1,0.9-2,2-2h22c1.1,0,2,0.9,2,2v32C179,79.1,178.1,80,177,80z"/>
		<path class="st12" d="M177,81h-22c-1.7,0-3-1.3-3-3V46c0-1.7,1.3-3,3-3h22c1.7,0,3,1.3,3,3v32C180,79.7,178.7,81,177,81z M155,45
			c-0.6,0-1,0.4-1,1v32c0,0.6,0.4,1,1,1h22c0.6,0,1-0.4,1-1V46c0-0.6-0.4-1-1-1H155z"/>
	</g>
	<g>
		<path class="st14" d="M174,80h-22c-1.1,0-2-0.9-2-2V46c0-1.1,0.9-2,2-2h16l8,8v26C176,79.1,175.1,80,174,80z"/>
		<path class="st12" d="M174,81h-22c-1.7,0-3-1.3-3-3V46c0-1.7,1.3-3,3-3h16c0.3,0,0.5,0.1,0.7,0.3l8,8c0.2,0.2,0.3,0.4,0.3,0.7v26
			C177,79.7,175.7,81,174,81z M152,45c-0.6,0-1,0.4-1,1v32c0,0.6,0.4,1,1,1h22c0.6,0,1-0.4,1-1V52.4l-7.4-7.4H152z"/>
	</g>
	<g>
		<path class="st12" d="M176,53h-6c-1.7,0-3-1.3-3-3v-6c0-0.4,0.2-0.8,0.6-0.9c0.4-0.2,0.8-0.1,1.1,0.2l8,8c0.3,0.3,0.4,0.7,0.2,1.1
			C176.8,52.8,176.4,53,176,53z M169,46.4V50c0,0.6,0.4,1,1,1h3.6L169,46.4z"/>
	</g>
	<g>
		<path class="st12" d="M159,54c-1.7,0-3-1.3-3-3v-9c0-1.7,1.3-3,3-3s3,1.3,3,3v2c0,0.6-0.4,1-1,1s-1-0.4-1-1v-2c0-0.6-0.4-1-1-1
			s-1,0.4-1,1v9c0,0.6,0.4,1,1,1s1-0.4,1-1v-3c0-0.6,0.4-1,1-1s1,0.4,1,1v3C162,52.7,160.7,54,159,54z"/>
	</g>
	<g>
		<g>
			<path class="st36" d="M163,59h-9c-0.6,0-1-0.4-1-1s0.4-1,1-1h9c0.6,0,1,0.4,1,1S163.6,59,163,59z"/>
		</g>
	</g>
	<g>
		<g>
			<path class="st36" d="M166,71h-12c-0.6,0-1-0.4-1-1s0.4-1,1-1h12c0.6,0,1,0.4,1,1S166.6,71,166,71z"/>
		</g>
	</g>
	<g>
		<g>
			<path class="st36" d="M163,67h-9c-0.6,0-1-0.4-1-1s0.4-1,1-1h9c0.6,0,1,0.4,1,1S163.6,67,163,67z"/>
		</g>
	</g>
	<g>
		<g>
			<path class="st36" d="M172,59h-6c-0.6,0-1-0.4-1-1s0.4-1,1-1h6c0.6,0,1,0.4,1,1S172.6,59,172,59z"/>
		</g>
	</g>
	<g>
		<g>
			<path class="st36" d="M160,63h-6c-0.6,0-1-0.4-1-1s0.4-1,1-1h6c0.6,0,1,0.4,1,1S160.6,63,160,63z"/>
		</g>
	</g>
	<g>
		<g>
			<path class="st36" d="M167,63h-4c-0.6,0-1-0.4-1-1s0.4-1,1-1h4c0.6,0,1,0.4,1,1S167.6,63,167,63z"/>
		</g>
	</g>
	<g>
		<g>
			<path class="st36" d="M169,67h-3c-0.6,0-1-0.4-1-1s0.4-1,1-1h3c0.6,0,1,0.4,1,1S169.6,67,169,67z"/>
		</g>
	</g>
	<g>
		<path class="st18" d="M169,77c-2.2,0-4-1.8-4-4s1.8-4,4-4s4,1.8,4,4S171.2,77,169,77z M169,71c-1.1,0-2,0.9-2,2s0.9,2,2,2
			s2-0.9,2-2S170.1,71,169,71z"/>
	</g>
	<g>
		<circle class="st18" cx="169" cy="73" r="1"/>
	</g>
</g>
<g>
	<path class="st48" d="M159,78h-2v23c0,0.6,0.4,1,1,1s1-0.4,1-1V78z"/>
	<path class="st12" d="M158,104c-1.7,0-3-1.3-3-3V77c0-0.6,0.4-1,1-1h4c0.6,0,1,0.4,1,1v24C161,102.7,159.7,104,158,104z M157,78v23
		c0,0.6,0.4,1,1,1s1-0.4,1-1V78H157z"/>
	<g>
		<path class="st49" d="M160,77h-4l0,0c0-1.3-0.5-2.5-1.4-3.4L154,73l4-8l4,8l-0.6,0.6C160.5,74.5,160,75.7,160,77L160,77z"/>
		<path class="st12" d="M160,78h-4c-0.6,0-1-0.4-1-1c0-1-0.4-2-1.1-2.7l-0.6-0.6c-0.3-0.3-0.4-0.8-0.2-1.2l4-8
			c0.3-0.7,1.4-0.7,1.8,0l4,8c0.2,0.4,0.1,0.8-0.2,1.2l-0.6,0.6C161.4,75,161,76,161,77C161,77.6,160.6,78,160,78z M156.9,76h2.2
			c0.2-1.2,0.8-2.3,1.6-3.1l0.1-0.1l-2.8-5.6l-2.8,5.6l0.1,0.1C156.1,73.7,156.7,74.8,156.9,76z"/>
	</g>
	<g>
		<path class="st12" d="M161,78h-6c-0.6,0-1-0.4-1-1s0.4-1,1-1h6c0.6,0,1,0.4,1,1S161.6,78,161,78z"/>
	</g>
	<g>
		<path class="st47" d="M159.1,76c0.2-1.2,0.8-2.3,1.6-3.1l0.1-0.1l-2.8-5.6V76H159.1z"/>
	</g>
	<g>
		<circle class="st12" cx="158" cy="73" r="1"/>
	</g>
	<path class="st50" d="M158,78h-1v1h1v23c0.6,0,1-0.4,1-1V78H158z"/>
</g>
<g>
	<g>
		<rect x="132" y="100" class="st16" width="12" height="2"/>
		<path class="st17" d="M145,104h-14c-0.6,0-1-0.4-1-1v-4c0-0.6,0.4-1,1-1h14c0.6,0,1,0.4,1,1v4C146,103.6,145.6,104,145,104z
			 M132,102h12v-2h-12V102z"/>
	</g>
	<g>
		<rect x="133" y="100" class="st34" width="3" height="2"/>
	</g>
	<g>
		<rect x="141" y="100" class="st20" width="3" height="2"/>
	</g>
</g>
<g>
	<g>
		<rect x="135" y="96" class="st16" width="12" height="2"/>
		<path class="st17" d="M148,100h-14c-0.6,0-1-0.4-1-1v-4c0-0.6,0.4-1,1-1h14c0.6,0,1,0.4,1,1v4C149,99.6,148.6,100,148,100z
			 M135,98h12v-2h-12V98z"/>
	</g>
	<g>
		<rect x="136" y="96" class="st34" width="3" height="2"/>
	</g>
	<g>
		<rect x="144" y="96" class="st20" width="3" height="2"/>
	</g>
</g>
<g>
	<g>
		<rect x="134" y="92" class="st16" width="12" height="2"/>
		<path class="st17" d="M147,96h-14c-0.6,0-1-0.4-1-1v-4c0-0.6,0.4-1,1-1h14c0.6,0,1,0.4,1,1v4C148,95.6,147.6,96,147,96z M134,94
			h12v-2h-12V94z"/>
	</g>
	<g>
		<rect x="135" y="92" class="st34" width="3" height="2"/>
	</g>
	<g>
		<rect x="143" y="92" class="st20" width="3" height="2"/>
	</g>
</g>
<g>
	<g>
		<circle class="st16" cx="140" cy="84" r="6"/>
		<path class="st17" d="M140,92c-4.4,0-8-3.6-8-8s3.6-8,8-8s8,3.6,8,8S144.4,92,140,92z M140,78c-3.3,0-6,2.7-6,6s2.7,6,6,6
			s6-2.7,6-6S143.3,78,140,78z"/>
	</g>
	<g>
		<path class="st51" d="M136.5,87.5c-2-2-2-5.1,0-7.1c2-2,5.1-2,7.1,0L136.5,87.5z"/>
	</g>
	<g>
		<path class="st17" d="M141.4,86.4c-0.3,0-0.5-0.1-0.7-0.3l-2.8-2.8c-0.4-0.4-0.4-1,0-1.4s1-0.4,1.4,0l2.8,2.8c0.4,0.4,0.4,1,0,1.4
			C141.9,86.3,141.7,86.4,141.4,86.4z"/>
	</g>
	<g>
		<path class="st17" d="M137.9,84.3c-0.3,0-0.5-0.1-0.7-0.3c-0.4-0.4-0.4-1,0-1.4l0.7-0.7c0.4-0.4,1-0.4,1.4,0s0.4,1,0,1.4l-0.7,0.7
			C138.4,84.2,138.1,84.3,137.9,84.3z"/>
	</g>
	<g>
		<path class="st17" d="M140.7,87.1c-0.3,0-0.5-0.1-0.7-0.3c-0.4-0.4-0.4-1,0-1.4l1.4-1.4c0.4-0.4,1-0.4,1.4,0s0.4,1,0,1.4l-1.4,1.4
			C141.2,87,141,87.1,140.7,87.1z"/>
	</g>
</g>
<path class="st12" d="M46.3,42.7L43,40.5V28.1c0-6.1-2.3-11.8-6.6-16.1c-1.2-1.2-3.3-1.2-4.5,0C27.5,16.2,25,22.2,25,28.3v12.2
	l-3.3,2.2c-1.7,1.1-2.7,3-2.7,5V50c0,0.6,0.4,1,1,1h5v2c0,0.6,0.4,1,1,1h16c0.6,0,1-0.4,1-1v-2h5c0.6,0,1-0.4,1-1v-2.3
	C49,45.7,48,43.8,46.3,42.7z M33.3,13.3c0.5-0.4,1.2-0.5,1.7,0c2.2,2.2,3.8,4.8,4.8,7.6H28.3C29.4,18.1,31.1,15.5,33.3,13.3z
	 M27,28.3c0-1.8,0.3-3.5,0.7-5.3h12.7c0.4,1.6,0.6,3.3,0.6,5.1V41v6H27v-6V28.3z M25,49h-4v-1.3c0-1.3,0.7-2.6,1.8-3.3l2.2-1.5V48
	V49z M41,50v2H27v-2v-1h14V50z M47,49h-4v-1v-5.1l2.2,1.5c1.1,0.7,1.8,2,1.8,3.3V49z"/>
</svg>
