<?xml version="1.0" encoding="utf-8"?>
<!-- Generator: Adobe Illustrator 21.0.0, SVG Export Plug-In . SVG Version: 6.00 Build 0)  -->
<svg version="1.1" id="Layer_1" xmlns="http://www.w3.org/2000/svg" xmlns:xlink="http://www.w3.org/1999/xlink" x="0px" y="0px"
	 viewBox="0 0 198 96" style="enable-background:new 0 0 198 96;" xml:space="preserve">
<style type="text/css">
	.st0{fill:#FAC0B8;}
	.st1{fill:#A7B0C4;}
	.st2{fill:#FFFFFF;}
	.st3{fill:#C7EAFB;}
	.st4{fill:#D3E2EB;}
	.st5{fill:#0F395A;}
	.st6{fill:#71B8E5;}
	.st7{fill:#FFCB5D;}
	.st8{fill:#E2E7EF;}
	.st9{fill:#4E9CD5;}
	.st10{fill:#66869B;}
	.st11{fill:#CAD5E3;}
	.st12{fill:#EDF1F9;}
	.st13{fill:#FBCABD;}
	.st14{fill:#F6B545;}
	.st15{fill:#AFC3D7;}
	.st16{fill:#D5E3EE;}
	.st17{fill:#F16B56;}
	.st18{fill:#4F6A7C;}
	.st19{fill:#577280;}
	.st20{fill:#EBF4DF;}
</style>
<g>
	<g>
		<rect x="70" y="13" class="st0" width="24" height="16"/>
		<path class="st1" d="M95,31H69c-0.6,0-1-0.4-1-1V12c0-0.6,0.4-1,1-1h26c0.6,0,1,0.4,1,1v18C96,30.6,95.6,31,95,31z M70,29h24V13
			H70V29z"/>
	</g>
	<g>
		<polygon class="st2" points="86,21 79,25 79,17 		"/>
	</g>
</g>
<g>
	<circle class="st3" cx="135" cy="65" r="7"/>
	<path class="st1" d="M135,56c-5,0-9,4-9,9s4,9,9,9s9-4,9-9S140,56,135,56z M141.9,64H139c-0.1-2-0.5-3.9-1.1-5.4
		C140,59.6,141.6,61.6,141.9,64z M135,72c-0.5,0-1.8-2.1-2-6h3.9C136.8,69.9,135.5,72,135,72z M133,64c0.2-3.9,1.4-6,2-6
		s1.8,2.1,2,6H133z M132.1,58.6c-0.6,1.5-1,3.4-1.1,5.4h-2.9C128.4,61.6,130,59.6,132.1,58.6z M128.1,66h2.9c0.1,2,0.5,3.9,1.1,5.4
		C130,70.4,128.4,68.4,128.1,66z M137.9,71.4c0.6-1.5,1-3.4,1.1-5.4h2.9C141.6,68.4,140,70.4,137.9,71.4z"/>
</g>
<g>
	<g>
		<g>
			<rect x="157" y="56" class="st4" width="24" height="38"/>
			<path class="st1" d="M182,54h-26c-0.6,0-1,0.4-1,1v8v8v8v8v8c0,0.6,0.4,1,1,1h26c0.6,0,1-0.4,1-1v-8v-8v-8v-8v-8
				C183,54.4,182.6,54,182,54z M181,70h-24v-6h24V70z M181,78h-24v-6h24V78z M157,80h24v6h-24V80z M157,56h24v6h-24V56z M181,94h-24
				v-6h24V94z"/>
		</g>
		<g>
			<circle class="st1" cx="160" cy="59" r="1"/>
		</g>
		<g>
			<circle class="st1" cx="163" cy="59" r="1"/>
		</g>
		<g>
			<circle class="st1" cx="166" cy="59" r="1"/>
		</g>
		<g>
			<circle class="st1" cx="169" cy="59" r="1"/>
		</g>
		<g>
			<circle class="st2" cx="178" cy="59" r="1"/>
		</g>
	</g>
	<g>
		<g>
			<circle class="st1" cx="160" cy="91" r="1"/>
		</g>
		<g>
			<circle class="st1" cx="163" cy="91" r="1"/>
		</g>
		<g>
			<circle class="st1" cx="166" cy="91" r="1"/>
		</g>
		<g>
			<circle class="st1" cx="169" cy="91" r="1"/>
		</g>
		<g>
			<circle class="st2" cx="178" cy="91" r="1"/>
		</g>
	</g>
	<g>
		<g>
			<circle class="st1" cx="160" cy="83" r="1"/>
		</g>
		<g>
			<circle class="st1" cx="163" cy="83" r="1"/>
		</g>
		<g>
			<circle class="st1" cx="166" cy="83" r="1"/>
		</g>
		<g>
			<circle class="st1" cx="169" cy="83" r="1"/>
		</g>
		<g>
			<circle class="st2" cx="178" cy="83" r="1"/>
		</g>
	</g>
	<g>
		<g>
			<circle class="st1" cx="160" cy="75" r="1"/>
		</g>
		<g>
			<circle class="st1" cx="163" cy="75" r="1"/>
		</g>
		<g>
			<circle class="st1" cx="166" cy="75" r="1"/>
		</g>
		<g>
			<circle class="st1" cx="169" cy="75" r="1"/>
		</g>
		<g>
			<circle class="st2" cx="178" cy="75" r="1"/>
		</g>
	</g>
	<g>
		<g>
			<circle class="st1" cx="160" cy="67" r="1"/>
		</g>
		<g>
			<circle class="st1" cx="163" cy="67" r="1"/>
		</g>
		<g>
			<circle class="st1" cx="166" cy="67" r="1"/>
		</g>
		<g>
			<circle class="st1" cx="169" cy="67" r="1"/>
		</g>
		<g>
			<circle class="st2" cx="178" cy="67" r="1"/>
		</g>
	</g>
</g>
<g>
	<g>
		<path class="st2" d="M156,95h-27c-1.1,0-2-0.9-2-2V73c0-1.1,0.9-2,2-2h27c1.1,0,2,0.9,2,2v20C158,94.1,157.1,95,156,95z"/>
		<path class="st5" d="M156,96h-27c-1.7,0-3-1.3-3-3V73c0-1.7,1.3-3,3-3h27c1.7,0,3,1.3,3,3v20C159,94.7,157.7,96,156,96z M129,72
			c-0.6,0-1,0.4-1,1v20c0,0.6,0.4,1,1,1h27c0.6,0,1-0.4,1-1V73c0-0.6-0.4-1-1-1H129z"/>
	</g>
	<g>
		<rect x="131" y="75" class="st6" width="23" height="16"/>
		<path class="st5" d="M155,93h-25c-0.6,0-1-0.4-1-1V74c0-0.6,0.4-1,1-1h25c0.6,0,1,0.4,1,1v18C156,92.6,155.6,93,155,93z M131,91
			h23V75h-23V91z"/>
	</g>
	<g>
		<circle class="st7" cx="139" cy="80" r="2"/>
	</g>
	<rect x="130" y="93" class="st8" width="2" height="1"/>
	<rect x="130" y="72" class="st8" width="2" height="1"/>
	<rect x="131" y="75" class="st9" width="1" height="16"/>
	<polygon class="st10" points="143.7,91 138,87.2 133,91 	"/>
	<path class="st5" d="M147,93h-17c-0.4,0-0.8-0.3-0.9-0.7c-0.1-0.4,0-0.9,0.3-1.1l8-6c0.3-0.3,0.8-0.3,1.2,0l9,6
		c0.4,0.2,0.5,0.7,0.4,1.1S147.4,93,147,93z M133,91h10.7l-5.7-3.8L133,91z"/>
	<polygon class="st10" points="143.2,91 154,91 154,90.1 149,84.5 	"/>
	<path class="st5" d="M155,93h-14c-0.4,0-0.8-0.2-0.9-0.6c-0.2-0.4-0.1-0.8,0.2-1.1l8-9c0.4-0.4,1.1-0.4,1.5,0l6,6.8
		c0.2,0.2,0.3,0.4,0.3,0.7V92C156,92.6,155.6,93,155,93z M143.2,91H154v-0.9l-5-5.6L143.2,91z"/>
</g>
<g>
	<g>
		<path class="st11" d="M97,68c-7.2,0-13,5.8-13,13s5.8,13,13,13s13-5.8,13-13S104.2,68,97,68z M97,83.8c-1.5,0-2.8-1.2-2.8-2.8
			s1.2-2.8,2.8-2.8s2.8,1.2,2.8,2.8S98.5,83.8,97,83.8z"/>
		<path class="st1" d="M97,96c-8.3,0-15-6.7-15-15s6.7-15,15-15c8.3,0,15,6.7,15,15S105.3,96,97,96z M97,68c-7.2,0-13,5.8-13,13
			s5.8,13,13,13c7.2,0,13-5.8,13-13S104.2,68,97,68z M97,85c-2.2,0-4-1.8-4-4s1.8-4,4-4s4,1.8,4,4S99.2,85,97,85z M97,79
			c-1.1,0-2,0.9-2,2s0.9,2,2,2s2-0.9,2-2S98.1,79,97,79z"/>
	</g>
	<g>
		<path class="st8" d="M101.1,68.7l-3.5,8.4c1.7,0.3,3,1.6,3.3,3.3l8.4-3.5C108,73,105,70,101.1,68.7z"/>
	</g>
	<g>
		<path class="st8" d="M92.9,93.3l3.5-8.4c-1.7-0.3-3-1.6-3.3-3.3l-8.4,3.5C86,89,89,92,92.9,93.3z"/>
	</g>
	<g>
		<path class="st12" d="M97,76c-2.8,0-5,2.2-5,5s2.2,5,5,5s5-2.2,5-5S99.8,76,97,76z M97,82.7c-0.9,0-1.7-0.7-1.7-1.7
			s0.7-1.7,1.7-1.7s1.7,0.7,1.7,1.7S97.9,82.7,97,82.7z"/>
		<path class="st1" d="M97,88c-3.9,0-7-3.1-7-7s3.1-7,7-7c3.9,0,7,3.1,7,7S100.9,88,97,88z M97,76c-2.8,0-5,2.2-5,5s2.2,5,5,5
			s5-2.2,5-5S99.8,76,97,76z M97,84c-1.7,0-3-1.3-3-3s1.3-3,3-3s3,1.3,3,3S98.7,84,97,84z M97,80c-0.6,0-1,0.4-1,1s0.4,1,1,1
			s1-0.4,1-1S97.6,80,97,80z"/>
	</g>
</g>
<g>
	<g>
		<rect x="22" y="84" class="st13" width="10" height="4"/>
	</g>
	<rect x="28" y="78" class="st13" width="10" height="4"/>
	<rect x="34" y="84" class="st13" width="10" height="4"/>
	<rect x="22" y="72" class="st13" width="10" height="4"/>
	<rect x="16" y="72" class="st13" width="4" height="4"/>
	<rect x="16" y="84" class="st13" width="4" height="4"/>
	<rect x="34" y="72" class="st13" width="10" height="4"/>
	<rect x="28" y="90" class="st13" width="10" height="4"/>
	<rect x="16" y="78" class="st13" width="10" height="4"/>
	<rect x="28" y="66" class="st13" width="10" height="4"/>
	<rect x="16" y="66" class="st13" width="10" height="4"/>
	<g>
		<rect x="16" y="90" class="st13" width="10" height="4"/>
		<path class="st1" d="M45,78c0.6,0,1-0.4,1-1v-6c0-0.6-0.4-1-1-1h-5v-5c0-0.6-0.4-1-1-1H27H15c-0.6,0-1,0.4-1,1v6v6v6v6v6
			c0,0.6,0.4,1,1,1h12h12c0.6,0,1-0.4,1-1v-5h5c0.6,0,1-0.4,1-1v-6c0-0.6-0.4-1-1-1h-5v-4H45z M44,76h-5h-5v-4h5h5V76z M27,76h-5v-4
			h5h5v4H27z M27,88h-5v-4h5h5v4H27z M20,76h-4v-4h4V76z M16,84h4v4h-4V84z M26,82h-5h-5v-4h5h5V82z M38,70h-5h-5v-4h10V70z M16,66
			h10v4h-5h-5V66z M16,90h5h5v4H16V90z M38,94H28v-4h5h5V94z M44,88h-5h-5v-4h5h5V88z M38,82h-5h-5v-4h5h5V82z"/>
	</g>
</g>
<g>
	<path class="st2" d="M138,41h28c0.6,0,1-0.4,1-1V18c0-0.6-0.4-1-1-1h-28c-0.6,0-1,0.4-1,1v22C137,40.6,137.4,41,138,41z"/>
	<path class="st4" d="M167,18c0-0.6-0.4-1-1-1h-28c-0.6,0-1,0.4-1,1v3h30V18z"/>
	<g>
		<circle class="st1" cx="139" cy="19" r="1"/>
	</g>
	<g>
		<circle class="st1" cx="142" cy="19" r="1"/>
	</g>
	<g>
		<circle class="st1" cx="145" cy="19" r="1"/>
	</g>
	<path class="st1" d="M166,15h-28c-1.7,0-3,1.3-3,3v22c0,1.7,1.3,3,3,3h28c1.7,0,3-1.3,3-3V18C169,16.3,167.7,15,166,15z M138,17h28
		c0.6,0,1,0.4,1,1v3h-30v-3C137,17.4,137.4,17,138,17z M166,41h-28c-0.6,0-1-0.4-1-1V23h30v17C167,40.6,166.6,41,166,41z"/>
</g>
<g>
	<g>
		<path class="st2" d="M38,41c-0.4,0-0.8,0-1.1,0.1c0.1-0.4,0.1-0.7,0.1-1.1c0-2.8-2.2-5-5-5c-2.3,0-4.1,1.5-4.8,3.6
			C26.6,38.2,25.8,38,25,38c-2.8,0-5,2.2-5,5c0,0,0,0.1,0,0.1C19.7,43,19.3,43,19,43c-2.8,0-5,2.2-5,5s2.2,5,5,5h19c3.3,0,6-2.7,6-6
			S41.3,41,38,41z"/>
		<path class="st1" d="M38,54H19c-3.3,0-6-2.7-6-6s2.7-6,6-6c0,0,0.1,0,0.1,0c0.5-2.8,2.9-5,5.9-5c0.6,0,1.1,0.1,1.7,0.3
			c1-2,3-3.3,5.3-3.3c3.3,0,6,2.7,6,6c3.9,0,7,3.1,7,7C45,50.9,41.9,54,38,54z M19,44c-2.2,0-4,1.8-4,4c0,2.2,1.8,4,4,4h19
			c2.8,0,5-2.2,5-5c0-3.1-2.7-5.5-5.9-4.9c-0.3,0.1-0.7,0-0.9-0.3c-0.2-0.2-0.3-0.6-0.3-0.9C36,40.6,36,40.3,36,40c0-2.2-1.8-4-4-4
			c-1.8,0-3.3,1.1-3.8,2.8c-0.1,0.3-0.3,0.5-0.6,0.6c-0.3,0.1-0.6,0.1-0.8,0C26.2,39.1,25.6,39,25,39c-2.2,0-4,1.8-4,4
			c0,0,0,0,0,0.1c0,0.3-0.1,0.6-0.4,0.8c-0.2,0.2-0.5,0.3-0.8,0.2C19.5,44,19.3,44,19,44z"/>
	</g>
	<g>
		<path class="st8" d="M41,43c0.6,0.8,1,1.9,1,3c0,2.8-2.2,5-5,5h-2H16.4c0.7,0.6,1.6,1,2.6,1h18c0.2,0,0.8,0,1,0c2.8,0,5-2.2,5-5
			C43,45.4,42.2,43.9,41,43z"/>
	</g>
	<g>
		<path class="st1" d="M44,48c-0.6,0-1-0.4-1-1c0-2.8-2.2-5-5-5c-1.7,0-3.2,0.8-4.2,2.2c-0.3,0.5-0.9,0.6-1.4,0.3
			c-0.5-0.3-0.6-0.9-0.3-1.4c1.3-2,3.5-3.1,5.8-3.1c3.9,0,7,3.1,7,7C45,47.6,44.6,48,44,48z"/>
	</g>
	<g>
		<path class="st1" d="M29.6,42c-0.4,0-0.8-0.2-0.9-0.6C28,39.9,26.6,39,25,39c-0.6,0-1-0.4-1-1s0.4-1,1-1c2.4,0,4.5,1.4,5.5,3.6
			c0.2,0.5,0,1.1-0.5,1.3C29.9,42,29.7,42,29.6,42z"/>
	</g>
	<g>
		<path class="st1" d="M23.6,47c-0.4,0-0.8-0.2-0.9-0.6C22,44.9,20.6,44,19,44c-0.6,0-1-0.4-1-1s0.4-1,1-1c2.4,0,4.5,1.4,5.5,3.6
			c0.2,0.5,0,1.1-0.5,1.3C23.9,47,23.7,47,23.6,47z"/>
	</g>
	<g>
		<path class="st1" d="M32,54c-2.2,0-4-1.8-4-4c0-0.6,0.4-1,1-1s1,0.4,1,1c0,1.1,0.9,2,2,2c0.6,0,1,0.4,1,1S32.6,54,32,54z"/>
	</g>
</g>
<g>
	<g>
		<path class="st2" d="M178,25c-0.4,0-0.8,0-1.1,0.1c0.1-0.4,0.1-0.7,0.1-1.1c0-2.8-2.2-5-5-5c-2.3,0-4.1,1.5-4.8,3.6
			c-0.7-0.3-1.4-0.6-2.2-0.6c-2.8,0-5,2.2-5,5c0,0,0,0.1,0,0.1c-0.3-0.1-0.7-0.1-1-0.1c-2.8,0-5,2.2-5,5s2.2,5,5,5h19
			c3.3,0,6-2.7,6-6S181.3,25,178,25z"/>
		<path class="st1" d="M178,38h-19c-3.3,0-6-2.7-6-6c0-3.3,2.8-6.1,6.1-6c0.5-2.8,2.9-5,5.9-5c0.6,0,1.1,0.1,1.7,0.3
			c1-2,3-3.3,5.3-3.3c3.3,0,6,2.7,6,6c3.9,0,7,3.1,7,7S181.9,38,178,38z M159,28c-2.2,0-4,1.8-4,4s1.8,4,4,4h19c2.8,0,5-2.2,5-5
			c0-3.1-2.7-5.5-5.9-4.9c-0.3,0.1-0.7,0-0.9-0.3s-0.3-0.6-0.3-0.9c0.1-0.3,0.1-0.6,0.1-0.9c0-2.2-1.8-4-4-4c-1.8,0-3.3,1.1-3.8,2.8
			c-0.1,0.3-0.3,0.5-0.6,0.6c-0.3,0.1-0.6,0.1-0.8,0c-0.6-0.3-1.2-0.4-1.8-0.4c-2.2,0-4,1.8-4,3.9c0,0,0,0.1,0,0.1
			c0,0.3-0.1,0.6-0.4,0.8c-0.2,0.2-0.5,0.3-0.8,0.2C159.5,28,159.3,28,159,28z"/>
	</g>
	<g>
		<path class="st8" d="M181,27c0.6,0.8,1,1.9,1,3c0,2.8-2.2,5-5,5h-2h-18.7c0.7,0.6,1.6,1,2.6,1h18c0.2,0,0.8,0,1,0c2.8,0,5-2.2,5-5
			C183,29.4,182.2,27.9,181,27z"/>
	</g>
	<g>
		<path class="st1" d="M184,32c-0.6,0-1-0.4-1-1c0-2.8-2.2-5-5-5c-1.7,0-3.2,0.8-4.2,2.2c-0.3,0.5-0.9,0.6-1.4,0.3
			c-0.5-0.3-0.6-0.9-0.3-1.4c1.3-2,3.5-3.1,5.8-3.1c3.9,0,7,3.1,7,7C185,31.6,184.6,32,184,32z"/>
	</g>
	<g>
		<path class="st1" d="M169.6,26c-0.4,0-0.8-0.2-0.9-0.6c-0.6-1.5-2.1-2.4-3.7-2.4c-0.6,0-1-0.4-1-1s0.4-1,1-1
			c2.4,0,4.5,1.4,5.5,3.6c0.2,0.5,0,1.1-0.5,1.3C169.9,26,169.7,26,169.6,26z"/>
	</g>
	<g>
		<path class="st1" d="M163.6,31c-0.4,0-0.8-0.2-0.9-0.6c-0.6-1.5-2.1-2.4-3.7-2.4c-0.6,0-1-0.4-1-1s0.4-1,1-1
			c2.4,0,4.5,1.4,5.5,3.6c0.2,0.5,0,1.1-0.5,1.3C163.9,31,163.7,31,163.6,31z"/>
	</g>
	<g>
		<path class="st1" d="M172,38c-2.2,0-4-1.8-4-4c0-0.6,0.4-1,1-1s1,0.4,1,1c0,1.1,0.9,2,2,2c0.6,0,1,0.4,1,1S172.6,38,172,38z"/>
	</g>
</g>
<g>
	<g>
		<path class="st7" d="M78,52H52c-1.1,0-2-0.9-2-2V32h30v18C80,51.1,79.1,52,78,52z"/>
		<path class="st5" d="M78,53H52c-1.7,0-3-1.3-3-3V32c0-0.6,0.4-1,1-1h30c0.6,0,1,0.4,1,1v18C81,51.7,79.7,53,78,53z M51,33v17
			c0,0.6,0.4,1,1,1h26c0.6,0,1-0.4,1-1V33H51z"/>
	</g>
	<g>
		<path class="st14" d="M78,50H52c-0.6,0-1-0.4-1-1v1c0,0.6,0.4,1,1,1h26c0.6,0,1-0.4,1-1v-1C79,49.6,78.6,50,78,50z"/>
	</g>
	<g>
		<path class="st14" d="M80,32H50l13.2-11.3c0.5-0.4,1.1-0.7,1.8-0.7l0,0c0.6,0,1.3,0.2,1.8,0.7L80,32z"/>
		<path class="st5" d="M80,33H50c-0.4,0-0.8-0.3-0.9-0.7c-0.1-0.4,0-0.8,0.3-1.1l13.2-11.3c1.3-1.1,3.5-1.1,4.8,0l13.2,11.3
			c0.3,0.3,0.4,0.7,0.3,1.1C80.8,32.7,80.4,33,80,33z M52.7,31h24.6l-11.2-9.6c-0.6-0.5-1.6-0.5-2.2,0L52.7,31z"/>
	</g>
	<g>
		<path class="st14" d="M50,32h30L66.8,43.3C66.3,43.8,65.6,44,65,44l0,0c-0.6,0-1.3-0.2-1.8-0.7L50,32z"/>
		<path class="st5" d="M65,45c-0.9,0-1.7-0.3-2.4-0.9L49.3,32.8c-0.3-0.3-0.4-0.7-0.3-1.1c0.1-0.4,0.5-0.7,0.9-0.7h30
			c0.4,0,0.8,0.3,0.9,0.7c0.1,0.4,0,0.8-0.3,1.1L67.4,44.1C66.7,44.7,65.9,45,65,45z M52.7,33l11.2,9.6c0.6,0.5,1.6,0.5,2.2,0
			L77.3,33H52.7z"/>
	</g>
	<g>
		<path class="st5" d="M79,52c-0.3,0-0.6-0.1-0.8-0.4l-8-10c-0.3-0.4-0.3-1.1,0.2-1.4c0.4-0.3,1.1-0.3,1.4,0.2l8,10
			c0.3,0.4,0.3,1.1-0.2,1.4C79.4,51.9,79.2,52,79,52z"/>
	</g>
	<g>
		<path class="st5" d="M51,52c-0.2,0-0.4-0.1-0.6-0.2c-0.4-0.3-0.5-1-0.2-1.4l8-10c0.3-0.4,1-0.5,1.4-0.2c0.4,0.3,0.5,1,0.2,1.4
			l-8,10C51.6,51.9,51.3,52,51,52z"/>
	</g>
	<path class="st2" d="M55,20v12v4.3l8.2,7.1c0.5,0.4,1.1,0.7,1.8,0.7s1.3-0.2,1.8-0.7l8.2-7.1V32v-5.2c0-0.5-0.2-1-0.6-1.4l-4.8-4.8
		c-0.4-0.4-0.9-0.6-1.4-0.6H55z"/>
	<g>
		<path class="st8" d="M74,28l-3.8,0.9c-0.1,0-0.3,0.1-0.4,0.1l0,0c-1,0-1.8-0.8-1.8-1.8V26h6V28z"/>
	</g>
	<path class="st5" d="M75.1,24.7l-4.8-4.8C69.7,19.3,69,19,68.2,19H55c-0.6,0-1,0.4-1,1v16.3c0,0.3,0.1,0.6,0.3,0.8l8.2,7.1
		c0.7,0.6,1.5,0.9,2.4,0.9s1.7-0.3,2.4-0.9l8.2-7.1c0.2-0.2,0.3-0.5,0.3-0.8v-9.5C76,26,75.7,25.3,75.1,24.7z M72.6,25H70v-2.6
		L72.6,25z M74,35.8l-7.9,6.8c-0.6,0.5-1.6,0.5-2.2,0L56,35.8V21h10c1.1,0,2,0.9,2,2v3c0,0.6,0.4,1,1,1h3c1.1,0,2,0.9,2,2V35.8z"/>
	<g>
		<g>
			<g>
				<path class="st5" d="M71,32H59c-0.6,0-1-0.4-1-1s0.4-1,1-1h12c0.6,0,1,0.4,1,1S71.6,32,71,32z"/>
			</g>
		</g>
		<g>
			<g>
				<path class="st5" d="M71,36H59c-0.6,0-1-0.4-1-1s0.4-1,1-1h12c0.6,0,1,0.4,1,1S71.6,36,71,36z"/>
			</g>
		</g>
		<g>
			<g>
				<path class="st5" d="M71,40H59c-0.6,0,0-0.4,0-1s-1.6-1-1-1h14c0.6,0-1,0.4-1,1S71.6,40,71,40z"/>
			</g>
		</g>
	</g>
</g>
<g>
	<g>
		<path class="st4" d="M93,95H37c-1.7,0-3-1.3-3-3V50c0-1.7,1.3-3,3-3h56c1.7,0,3,1.3,3,3v42C96,93.7,94.7,95,93,95z"/>
		<path class="st5" d="M93,96H37c-2.2,0-4-1.8-4-4V50c0-2.2,1.8-4,4-4h56c2.2,0,4,1.8,4,4v42C97,94.2,95.2,96,93,96z M37,48
			c-1.1,0-2,0.9-2,2v42c0,1.1,0.9,2,2,2h56c1.1,0,2-0.9,2-2V50c0-1.1-0.9-2-2-2H37z"/>
	</g>
	<g>
		<rect x="40" y="53" class="st2" width="50" height="30"/>
		<path class="st5" d="M91,85H39c-0.6,0-1-0.4-1-1V52c0-0.6,0.4-1,1-1h52c0.6,0,1,0.4,1,1v32C92,84.6,91.6,85,91,85z M40,83h50V53
			H40V83z"/>
	</g>
	<path class="st4" d="M70,89L70,89c0,1.1-0.9,2-2,2h-6c-1.1,0-2-0.9-2-2l0,0H29v3c0,1.7,1.3,3,3,3h66c1.7,0,3-1.3,3-3v-3H70z"/>
	<g>
		<circle class="st5" cx="65" cy="87" r="1"/>
	</g>
	<g>
		<path class="st15" d="M32,94h66c1.1,0,2-0.9,2-2H68h-6H30C30,93.1,30.9,94,32,94z"/>
	</g>
	<g>
		<path class="st15" d="M94,48.3V88h1V50C95,49.3,94.6,48.6,94,48.3z"/>
	</g>
	<path class="st5" d="M101,88H70H60H29c-0.6,0-1,0.4-1,1v3c0,2.2,1.8,4,4,4h66c2.2,0,4-1.8,4-4v-3C102,88.4,101.6,88,101,88z
		 M100,92c0,1.1-0.9,2-2,2H32c-1.1,0-2-0.9-2-2v-2h29.2c0.4,1.2,1.5,2,2.8,2h6c1.3,0,2.4-0.8,2.8-2H100V92z"/>
	<g>
		<g>
			<path class="st1" d="M87,81H43c-0.6,0-1-0.4-1-1V56c0-0.6,0.4-1,1-1h44c0.6,0,1,0.4,1,1v24C88,80.6,87.6,81,87,81z M44,79h42V57
				H44V79z"/>
		</g>
		<g>
			<path class="st1" d="M87,63H43c-0.6,0-1-0.4-1-1s0.4-1,1-1h44c0.6,0,1,0.4,1,1S87.6,63,87,63z"/>
		</g>
		<g>
			<rect x="44" y="57" class="st8" width="42" height="4"/>
		</g>
		<g>
			<circle class="st1" cx="47" cy="59" r="1"/>
		</g>
		<g>
			<circle class="st1" cx="50" cy="59" r="1"/>
		</g>
		<g>
			<circle class="st1" cx="53" cy="59" r="1"/>
		</g>
	</g>
	<g>
		<g>
			<path class="st1" d="M74,68h-9c-0.6,0-1-0.4-1-1s0.4-1,1-1h9c0.6,0,1,0.4,1,1S74.6,68,74,68z"/>
		</g>
	</g>
	<g>
		<g>
			<path class="st1" d="M74,76h-9c-0.6,0-1-0.4-1-1s0.4-1,1-1h9c0.6,0,1,0.4,1,1S74.6,76,74,76z"/>
		</g>
	</g>
	<g>
		<g>
			<path class="st1" d="M83,68h-6c-0.6,0-1-0.4-1-1s0.4-1,1-1h6c0.6,0,1,0.4,1,1S83.6,68,83,68z"/>
		</g>
	</g>
	<g>
		<g>
			<path class="st1" d="M71,72h-6c-0.6,0-1-0.4-1-1s0.4-1,1-1h6c0.6,0,1,0.4,1,1S71.6,72,71,72z"/>
		</g>
	</g>
	<g>
		<g>
			<path class="st1" d="M78,72h-4c-0.6,0-1-0.4-1-1s0.4-1,1-1h4c0.6,0,1,0.4,1,1S78.6,72,78,72z"/>
		</g>
	</g>
	<g>
		<g>
			<path class="st1" d="M80,76h-3c-0.6,0-1-0.4-1-1s0.4-1,1-1h3c0.6,0,1,0.4,1,1S80.6,76,80,76z"/>
		</g>
	</g>
	<g>
		<path class="st1" d="M61,76H47c-0.6,0-1-0.4-1-1v-8c0-0.6,0.4-1,1-1h14c0.6,0,1,0.4,1,1v8C62,75.6,61.6,76,61,76z M48,74h12v-6H48
			V74z"/>
	</g>
</g>
<g>
	<g>
		<path class="st16" d="M107.9,37.4c0.7,0.1,1.3,0.7,1.5,1.4c0.2,0.5,0.3,0.9,0.6,1.4c0.3,0.6,0.3,1.4-0.1,2l-0.5,0.8
			c-0.3,0.5-0.3,1.1,0.2,1.5l0,0c0.4,0.4,1.1,0.5,1.5,0.2l0.8-0.5c0.6-0.4,1.4-0.4,2-0.1c0.4,0.2,0.9,0.4,1.4,0.6
			c0.7,0.2,1.2,0.8,1.4,1.5l0.2,0.9c0.1,0.6,0.6,1,1.2,1l0,0c0.6,0,1.1-0.4,1.2-1l0.2-0.9c0.1-0.7,0.7-1.3,1.4-1.5
			c0.5-0.2,0.9-0.3,1.4-0.6c0.6-0.3,1.4-0.3,2,0.1l0.8,0.5c0.5,0.3,1.1,0.3,1.5-0.2l0,0c0.4-0.4,0.5-1.1,0.2-1.5l-0.5-0.8
			c-0.4-0.6-0.4-1.4-0.1-2c0.2-0.4,0.4-0.9,0.6-1.4c0.2-0.7,0.8-1.2,1.5-1.4l0.9-0.2c0.6-0.1,1-0.6,1-1.2v0c0-0.6-0.4-1.1-1-1.2
			l-0.9-0.2c-0.7-0.1-1.3-0.7-1.5-1.4c-0.2-0.5-0.3-0.9-0.6-1.4c-0.3-0.6-0.3-1.4,0.1-2l0.5-0.8c0.3-0.5,0.3-1.1-0.2-1.5l0,0
			c-0.4-0.4-1.1-0.5-1.5-0.2l-0.8,0.5c-0.6,0.4-1.4,0.4-2,0.1c-0.4-0.2-0.9-0.4-1.4-0.6c-0.7-0.2-1.2-0.8-1.4-1.5l-0.2-0.9
			c-0.1-0.6-0.6-1-1.2-1h0c-0.6,0-1.1,0.4-1.2,1l-0.2,0.9c-0.1,0.7-0.7,1.3-1.4,1.5c-0.5,0.2-0.9,0.3-1.4,0.6
			c-0.6,0.3-1.4,0.3-2-0.1l-0.8-0.5c-0.5-0.3-1.1-0.3-1.5,0.2l0,0c-0.4,0.4-0.5,1.1-0.2,1.5l0.5,0.8c0.4,0.6,0.4,1.4,0.1,2
			c-0.2,0.4-0.4,0.9-0.6,1.4c-0.2,0.7-0.8,1.2-1.5,1.4l-0.9,0.2c-0.6,0.1-1,0.6-1,1.2v0c0,0.6,0.4,1.1,1,1.2L107.9,37.4z M118,31
			c2.8,0,5,2.2,5,5s-2.2,5-5,5s-5-2.2-5-5S115.2,31,118,31z"/>
		<path class="st1" d="M118,49c-1.1,0-2-0.8-2.2-1.8l-0.2-0.9c-0.1-0.4-0.3-0.6-0.7-0.7c-0.5-0.2-1-0.4-1.5-0.6
			c-0.3-0.2-0.7-0.2-1,0l-0.8,0.5c-0.9,0.6-2.1,0.5-2.8-0.3c-0.7-0.7-0.9-1.9-0.3-2.8l0.5-0.8c0.2-0.3,0.2-0.7,0-1
			c-0.3-0.5-0.5-1-0.6-1.5c-0.1-0.3-0.4-0.6-0.7-0.7l-0.9-0.2c-1-0.2-1.8-1.1-1.8-2.2s0.8-2,1.8-2.2l0.9-0.2
			c0.4-0.1,0.6-0.3,0.7-0.7c0.2-0.5,0.4-1,0.6-1.5c0.2-0.3,0.2-0.7,0-1l-0.5-0.8c-0.6-0.9-0.5-2.1,0.3-2.8s1.9-0.9,2.8-0.3l0.8,0.5
			c0.3,0.2,0.7,0.2,1,0c0.5-0.3,1-0.5,1.5-0.6c0.3-0.1,0.6-0.4,0.7-0.7l0.2-0.9c0.2-1,1.1-1.8,2.2-1.8s2,0.8,2.2,1.8l0.2,0.9
			c0.1,0.4,0.3,0.6,0.7,0.7c0.5,0.2,1,0.4,1.5,0.6c0.3,0.2,0.7,0.2,1,0l0.8-0.5c0.9-0.6,2.1-0.5,2.8,0.3c0.7,0.7,0.9,1.9,0.3,2.8
			l-0.5,0.8c-0.2,0.3-0.2,0.7,0,1c0.3,0.5,0.5,1,0.6,1.5c0.1,0.3,0.4,0.6,0.7,0.7l0.9,0.2c1,0.2,1.8,1.1,1.8,2.2s-0.8,2-1.8,2.2
			l-0.9,0.2c-0.4,0.1-0.6,0.3-0.7,0.7c-0.2,0.5-0.4,1-0.6,1.5c-0.2,0.3-0.2,0.7,0,1l0.5,0.8c0.6,0.9,0.5,2.1-0.3,2.8
			c-0.7,0.7-1.9,0.9-2.8,0.3l-0.8-0.5c-0.3-0.2-0.7-0.2-1,0c-0.5,0.3-1,0.5-1.5,0.6c-0.3,0.1-0.6,0.4-0.7,0.7l-0.2,0.9
			C120,48.2,119.1,49,118,49z M113,42.8c0.5,0,0.9,0.1,1.4,0.3c0.4,0.2,0.8,0.4,1.2,0.5c1,0.3,1.8,1.2,2,2.3l0.2,0.9
			c0,0.2,0.4,0.2,0.4,0l0.2-0.9c0.2-1.1,1-1.9,2-2.3c0.4-0.1,0.8-0.3,1.2-0.5c1-0.5,2.1-0.4,3,0.2l0.8,0.5c0.1,0.1,0.2,0,0.3,0
			c0.1-0.1,0.1-0.2,0-0.3l-0.5-0.8c-0.6-0.9-0.7-2.1-0.2-3c0.2-0.4,0.4-0.8,0.5-1.2c0.3-1,1.2-1.8,2.3-2l0.9-0.2
			c0.1,0,0.2-0.1,0.2-0.2s-0.1-0.2-0.2-0.2l-0.9-0.2c-1.1-0.2-1.9-1-2.3-2c-0.1-0.4-0.3-0.8-0.5-1.2c-0.5-1-0.4-2.1,0.2-3l0.5-0.8
			c0.1-0.1,0-0.2,0-0.3c-0.1-0.1-0.2-0.1-0.3,0l-0.8,0.5c-0.9,0.6-2.1,0.7-3,0.2c-0.4-0.2-0.8-0.4-1.2-0.5c-1-0.3-1.8-1.2-2-2.3
			l-0.2-0.9c0-0.2-0.4-0.2-0.4,0l-0.2,0.9c-0.2,1.1-1,1.9-2,2.3c-0.4,0.1-0.8,0.3-1.2,0.5c-1,0.5-2.1,0.4-3-0.2l-0.8-0.5
			c-0.1-0.1-0.2,0-0.3,0c-0.1,0.1-0.1,0.2,0,0.3l0.5,0.8c0.6,0.9,0.7,2.1,0.2,3c-0.2,0.4-0.4,0.8-0.5,1.2c-0.3,1-1.2,1.8-2.3,2
			l-0.9,0.2c-0.1,0-0.2,0.1-0.2,0.2s0.1,0.2,0.2,0.2l0.9,0.2l0,0c1.1,0.2,1.9,1,2.3,2c0.1,0.4,0.3,0.8,0.5,1.2c0.5,1,0.4,2.1-0.2,3
			l-0.5,0.8c-0.1,0.1,0,0.2,0,0.3c0.1,0.1,0.2,0.1,0.3,0l0.8-0.5C111.8,42.9,112.4,42.8,113,42.8z M118,42c-3.3,0-6-2.7-6-6
			s2.7-6,6-6s6,2.7,6,6S121.3,42,118,42z M118,32c-2.2,0-4,1.8-4,4s1.8,4,4,4s4-1.8,4-4S120.2,32,118,32z"/>
	</g>
	<g>
		<path class="st11" d="M128.8,35.8l-0.9-0.2c-1.1-0.2-1.9-1-2.3-2.1c-0.1-0.4-0.3-0.8-0.5-1.2c-0.5-1-0.4-2.1,0.2-3l0.5-0.8
			c0.1-0.1,0-0.2,0-0.3l-2.2,2.2c-0.4,0.4-0.4,0.9-0.1,1.3c1.2,1.5,1.7,3.5,1.3,5.7c-0.5,2.8-2.7,5-5.5,5.5
			c-2.1,0.4-4.2-0.2-5.7-1.3c-0.4-0.3-1-0.3-1.3,0.1l-2.2,2.2c0.1,0.1,0.2,0.1,0.3,0l0.8-0.5c0.5-0.3,1.1-0.5,1.7-0.5
			c0.5,0,0.9,0.1,1.4,0.3c0.4,0.2,0.8,0.4,1.2,0.5c1.1,0.3,1.9,1.2,2.1,2.3l0.2,0.9c0,0.2,0.4,0.2,0.4,0l0.2-0.9
			c0.2-1.1,1-1.9,2.1-2.3c0.4-0.1,0.8-0.3,1.2-0.5c1-0.5,2.1-0.4,3,0.2l0.8,0.5c0.1,0.1,0.2,0,0.3,0c0.1-0.1,0.1-0.2,0-0.3l-0.5-0.8
			c-0.6-0.9-0.7-2.1-0.2-3c0.2-0.4,0.4-0.8,0.5-1.2c0.3-1.1,1.2-1.9,2.3-2.1l0.9-0.2c0.1,0,0.2-0.1,0.2-0.2S128.9,35.8,128.8,35.8z"
			/>
	</g>
	<g>
		<path class="st11" d="M112,36c0-3.3,2.7-6,6-6c1.7,0,3.2,0.7,4.2,1.8c0,0,0.8-0.8-0.2-1.5c-1.1-0.8-2.5-1.3-4-1.3
			c-3.9,0-7,3.1-7,7c0,1.5,0.4,2.9,1.3,4c0.7,1,1.5,0.2,1.5,0.2C112.7,39.2,112,37.7,112,36z"/>
	</g>
</g>
<g>
	<circle class="st7" cx="187" cy="74" r="1"/>
</g>
<g>
	<circle class="st7" cx="49" cy="16" r="1"/>
</g>
<g>
	<circle class="st7" cx="124" cy="16" r="1"/>
</g>
<g>
	<circle class="st7" cx="4" cy="71" r="1"/>
</g>
<g>
	<circle class="st7" cx="162" cy="8" r="1"/>
</g>
<g>
	<circle class="st6" cx="191" cy="63" r="1"/>
</g>
<g>
	<circle class="st6" cx="147" cy="9" r="1"/>
</g>
<g>
	<circle class="st6" cx="76" cy="3" r="1"/>
</g>
<g>
	<circle class="st6" cx="29" cy="27" r="1"/>
</g>
<g>
	<circle class="st17" cx="195" cy="73" r="1"/>
</g>
<g>
	<circle class="st17" cx="103" cy="8" r="1"/>
</g>
<g>
	<circle class="st17" cx="184" cy="19" r="1"/>
</g>
<g>
	<circle class="st17" cx="8" cy="52" r="1"/>
</g>
<g>
	<path class="st14" d="M43,31c-1.7,0-3-1.3-3-3s1.3-3,3-3s3,1.3,3,3S44.7,31,43,31z M43,27c-0.6,0-1,0.4-1,1s0.4,1,1,1s1-0.4,1-1
		S43.6,27,43,27z"/>
</g>
<g>
	<path class="st14" d="M92,6c-1.7,0-3-1.3-3-3s1.3-3,3-3s3,1.3,3,3S93.7,6,92,6z M92,2c-0.6,0-1,0.4-1,1s0.4,1,1,1s1-0.4,1-1
		S92.6,2,92,2z"/>
</g>
<g>
	<path class="st14" d="M190,86c-1.7,0-3-1.3-3-3s1.3-3,3-3s3,1.3,3,3S191.7,86,190,86z M190,82c-0.6,0-1,0.4-1,1s0.4,1,1,1
		s1-0.4,1-1S190.6,82,190,82z"/>
</g>
<g>
	<path class="st17" d="M5,88c-1.7,0-3-1.3-3-3s1.3-3,3-3s3,1.3,3,3S6.7,88,5,88z M5,84c-0.6,0-1,0.4-1,1s0.4,1,1,1s1-0.4,1-1
		S5.6,84,5,84z"/>
</g>
<g>
	<path class="st17" d="M130,15c-1.7,0-3-1.3-3-3s1.3-3,3-3s3,1.3,3,3S131.7,15,130,15z M130,11c-0.6,0-1,0.4-1,1s0.4,1,1,1
		s1-0.4,1-1S130.6,11,130,11z"/>
</g>
<g>
	<path class="st6" d="M18,36c-1.7,0-3-1.3-3-3s1.3-3,3-3s3,1.3,3,3S19.7,36,18,36z M18,32c-0.6,0-1,0.4-1,1s0.4,1,1,1s1-0.4,1-1
		S18.6,32,18,32z"/>
</g>
<g>
	<path class="st6" d="M116,13c-1.7,0-3-1.3-3-3s1.3-3,3-3s3,1.3,3,3S117.7,13,116,13z M116,9c-0.6,0-1,0.4-1,1s0.4,1,1,1s1-0.4,1-1
		S116.6,9,116,9z"/>
</g>
<g>
	<path class="st6" d="M173,14c-1.7,0-3-1.3-3-3s1.3-3,3-3s3,1.3,3,3S174.7,14,173,14z M173,10c-0.6,0-1,0.4-1,1s0.4,1,1,1s1-0.4,1-1
		S173.6,10,173,10z"/>
</g>
<path class="st14" d="M34.9,15.5l0.8-0.8c0.4-0.4,0.4-1,0-1.4s-1-0.4-1.4,0l-0.8,0.8l-0.8-0.8c-0.4-0.4-1-0.4-1.4,0s-0.4,1,0,1.4
	l0.8,0.8l-0.8,0.8c-0.4,0.4-0.4,1,0,1.4c0.2,0.2,0.5,0.3,0.7,0.3s0.5-0.1,0.7-0.3l0.8-0.8l0.8,0.8c0.2,0.2,0.5,0.3,0.7,0.3
	s0.5-0.1,0.7-0.3c0.4-0.4,0.4-1,0-1.4L34.9,15.5z"/>
<path class="st17" d="M107.9,18.5l0.8-0.8c0.4-0.4,0.4-1,0-1.4s-1-0.4-1.4,0l-0.8,0.8l-0.8-0.8c-0.4-0.4-1-0.4-1.4,0s-0.4,1,0,1.4
	l0.8,0.8l-0.8,0.8c-0.4,0.4-0.4,1,0,1.4c0.2,0.2,0.5,0.3,0.7,0.3s0.5-0.1,0.7-0.3l0.8-0.8l0.8,0.8c0.2,0.2,0.5,0.3,0.7,0.3
	s0.5-0.1,0.7-0.3c0.4-0.4,0.4-1,0-1.4L107.9,18.5z"/>
<path class="st17" d="M63.9,8.5l0.8-0.8c0.4-0.4,0.4-1,0-1.4s-1-0.4-1.4,0l-0.8,0.8l-0.8-0.8c-0.4-0.4-1-0.4-1.4,0s-0.4,1,0,1.4
	l0.8,0.8l-0.8,0.8c-0.4,0.4-0.4,1,0,1.4c0.2,0.2,0.5,0.3,0.7,0.3s0.5-0.1,0.7-0.3l0.8-0.8l0.8,0.8c0.2,0.2,0.5,0.3,0.7,0.3
	s0.5-0.1,0.7-0.3c0.4-0.4,0.4-1,0-1.4L63.9,8.5z"/>
<g>
	<path class="st5" d="M184,96H14c-0.6,0-1-0.4-1-1s0.4-1,1-1h170c0.6,0,1,0.4,1,1S184.6,96,184,96z"/>
</g>
<g>
	<circle class="st5" cx="197" cy="95" r="1"/>
</g>
<g>
	<path class="st5" d="M193,96h-5c-0.6,0-1-0.4-1-1s0.4-1,1-1h5c0.6,0,1,0.4,1,1S193.6,96,193,96z"/>
</g>
<g>
	<circle class="st5" cx="1" cy="95" r="1"/>
</g>
<g>
	<path class="st5" d="M10,96H5c-0.6,0-1-0.4-1-1s0.4-1,1-1h5c0.6,0,1,0.4,1,1S10.6,96,10,96z"/>
</g>
<g>
	<circle class="st5" cx="108" cy="73" r="1"/>
</g>
<g>
	<circle class="st5" cx="111" cy="73" r="1"/>
</g>
<g>
	<circle class="st5" cx="105" cy="70" r="1"/>
</g>
<g>
	<circle class="st5" cx="105" cy="73" r="1"/>
</g>
<g>
	<circle class="st5" cx="134" cy="51" r="1"/>
</g>
<g>
	<circle class="st5" cx="137" cy="51" r="1"/>
</g>
<g>
	<circle class="st5" cx="131" cy="51" r="1"/>
</g>
<g>
	<circle class="st5" cx="105" cy="64" r="1"/>
</g>
<g>
	<circle class="st5" cx="105" cy="61" r="1"/>
</g>
<g>
	<circle class="st5" cx="86" cy="34" r="1"/>
</g>
<g>
	<circle class="st5" cx="83" cy="34" r="1"/>
</g>
<g>
	<circle class="st5" cx="89" cy="34" r="1"/>
</g>
<g>
	<circle class="st5" cx="92" cy="34" r="1"/>
</g>
<g>
	<circle class="st5" cx="95" cy="34" r="1"/>
</g>
<g>
	<circle class="st5" cx="95" cy="37" r="1"/>
</g>
<g>
	<circle class="st5" cx="105" cy="67" r="1"/>
</g>
<g>
	<circle class="st5" cx="102" cy="73" r="1"/>
</g>
<g>
	<circle class="st5" cx="99" cy="73" r="1"/>
</g>
<g>
	<g>
		<path class="st16" d="M167,66h-22c-1.1,0-2-0.9-2-2V32c0-1.1,0.9-2,2-2h22c1.1,0,2,0.9,2,2v32C169,65.1,168.1,66,167,66z"/>
		<path class="st5" d="M167,67h-22c-1.7,0-3-1.3-3-3V32c0-1.7,1.3-3,3-3h22c1.7,0,3,1.3,3,3v32C170,65.7,168.7,67,167,67z M145,31
			c-0.6,0-1,0.4-1,1v32c0,0.6,0.4,1,1,1h22c0.6,0,1-0.4,1-1V32c0-0.6-0.4-1-1-1H145z"/>
	</g>
	<g>
		<path class="st12" d="M164,66h-22c-1.1,0-2-0.9-2-2V32c0-1.1,0.9-2,2-2h16l8,8v26C166,65.1,165.1,66,164,66z"/>
		<path class="st5" d="M164,67h-22c-1.7,0-3-1.3-3-3V32c0-1.7,1.3-3,3-3h16c0.3,0,0.5,0.1,0.7,0.3l8,8c0.2,0.2,0.3,0.4,0.3,0.7v26
			C167,65.7,165.7,67,164,67z M142,31c-0.6,0-1,0.4-1,1v32c0,0.6,0.4,1,1,1h22c0.6,0,1-0.4,1-1V38.4l-7.4-7.4H142z"/>
	</g>
	<g>
		<path class="st12" d="M160,38h6l-8-8v6C158,37.1,158.9,38,160,38z"/>
		<path class="st5" d="M166,39h-6c-1.7,0-3-1.3-3-3v-6c0-0.4,0.2-0.8,0.6-0.9c0.4-0.2,0.8-0.1,1.1,0.2l8,8c0.3,0.3,0.4,0.7,0.2,1.1
			C166.8,38.8,166.4,39,166,39z M159,32.4V36c0,0.6,0.4,1,1,1h3.6L159,32.4z"/>
	</g>
	<g>
		<path class="st5" d="M149,40c-1.7,0-3-1.3-3-3v-9c0-1.7,1.3-3,3-3s3,1.3,3,3v2c0,0.6-0.4,1-1,1s-1-0.4-1-1v-2c0-0.6-0.4-1-1-1
			s-1,0.4-1,1v9c0,0.6,0.4,1,1,1s1-0.4,1-1v-3c0-0.6,0.4-1,1-1s1,0.4,1,1v3C152,38.7,150.7,40,149,40z"/>
	</g>
	<g>
		<g>
			<path class="st5" d="M153,45h-9c-0.6,0-1-0.4-1-1s0.4-1,1-1h9c0.6,0,1,0.4,1,1S153.6,45,153,45z"/>
		</g>
	</g>
	<g>
		<g>
			<path class="st5" d="M156,57h-12c-0.6,0-1-0.4-1-1s0.4-1,1-1h12c0.6,0,1,0.4,1,1S156.6,57,156,57z"/>
		</g>
	</g>
	<g>
		<g>
			<path class="st5" d="M153,53h-9c-0.6,0-1-0.4-1-1s0.4-1,1-1h9c0.6,0,1,0.4,1,1S153.6,53,153,53z"/>
		</g>
	</g>
	<g>
		<g>
			<path class="st5" d="M162,45h-6c-0.6,0-1-0.4-1-1s0.4-1,1-1h6c0.6,0,1,0.4,1,1S162.6,45,162,45z"/>
		</g>
	</g>
	<g>
		<g>
			<path class="st5" d="M150,49h-6c-0.6,0-1-0.4-1-1s0.4-1,1-1h6c0.6,0,1,0.4,1,1S150.6,49,150,49z"/>
		</g>
	</g>
	<g>
		<g>
			<path class="st5" d="M157,61h-6c-0.6,0-1-0.4-1-1s0.4-1,1-1h6c0.6,0,1,0.4,1,1S157.6,61,157,61z"/>
		</g>
	</g>
	<g>
		<g>
			<path class="st5" d="M157,49h-4c-0.6,0-1-0.4-1-1s0.4-1,1-1h4c0.6,0,1,0.4,1,1S157.6,49,157,49z"/>
		</g>
	</g>
	<g>
		<g>
			<path class="st5" d="M148,61h-4c-0.6,0-1-0.4-1-1s0.4-1,1-1h4c0.6,0,1,0.4,1,1S148.6,61,148,61z"/>
		</g>
	</g>
	<g>
		<g>
			<path class="st5" d="M159,53h-3c-0.6,0-1-0.4-1-1s0.4-1,1-1h3c0.6,0,1,0.4,1,1S159.6,53,159,53z"/>
		</g>
	</g>
</g>
<g>
	<path class="st10" d="M116,94h12c0.6,0,1-0.4,1-1V69c0-0.6-0.4-1-1-1h-12c-0.6,0-1,0.4-1,1v24C115,93.6,115.4,94,116,94z"/>
	<g>
		<rect x="115" y="73" class="st18" width="14" height="15"/>
		<path class="st5" d="M128,66h-12c-1.7,0-3,1.3-3,3v3v17v4c0,1.7,1.3,3,3,3h12c1.7,0,3-1.3,3-3v-4V72v-3C131,67.3,129.7,66,128,66z
			 M116,68h12c0.6,0,1,0.4,1,1v2h-14v-2C115,68.4,115.4,68,116,68z M129,88h-14V73h14V88z M128,94h-12c-0.6,0-1-0.4-1-1v-3h14v3
			C129,93.6,128.6,94,128,94z"/>
	</g>
	<g>
		<circle class="st5" cx="122" cy="92" r="1"/>
	</g>
	<g>
		<polygon class="st19" points="122,88 119,88 129,78 129,81 		"/>
	</g>
	<g>
		<polygon class="st19" points="129,88 124,88 129,83 		"/>
	</g>
</g>
<path class="st6" d="M188.9,47.5l0.8-0.8c0.4-0.4,0.4-1,0-1.4s-1-0.4-1.4,0l-0.8,0.8l-0.8-0.8c-0.4-0.4-1-0.4-1.4,0s-0.4,1,0,1.4
	l0.8,0.8l-0.8,0.8c-0.4,0.4-0.4,1,0,1.4c0.2,0.2,0.5,0.3,0.7,0.3s0.5-0.1,0.7-0.3l0.8-0.8l0.8,0.8c0.2,0.2,0.5,0.3,0.7,0.3
	s0.5-0.1,0.7-0.3c0.4-0.4,0.4-1,0-1.4L188.9,47.5z"/>
<g>
	<g>
		<path class="st2" d="M121,44c-0.4,0-0.8,0-1.2,0.1c-0.9-4.6-4.9-8.1-9.8-8.1c-1.8,0-3.5,0.5-5,1.3c-1.6,0.9-3,2.3-3.9,4
			C100,40.5,98.6,40,97,40c-3.9,0-7,3.1-7,7c0,0.4,0,0.7,0.1,1.1C87.8,48.5,86,50.5,86,53c0,2.8,2.2,5,5,5c2.5,0,27.5,0,30,0
			c3.9,0,7-3.1,7-7C128,47.1,124.9,44,121,44z"/>
		<path class="st5" d="M121,59H91c-3.3,0-6-2.7-6-6c0-2.6,1.6-4.8,4-5.7c0-0.1,0-0.2,0-0.3c0-4.4,3.6-8,8-8c1.3,0,2.6,0.3,3.8,1
			c0.9-1.4,2.2-2.6,3.7-3.5c1.7-1,3.6-1.5,5.5-1.5c5,0,9.3,3.3,10.6,8c0.1,0,0.3,0,0.4,0c4.4,0,8,3.6,8,8S125.4,59,121,59z M97,41
			c-3.3,0-6,2.7-6,6c0,0.3,0,0.6,0.1,0.9c0.1,0.5-0.3,1-0.8,1.1c-1.9,0.3-3.3,2-3.3,3.9c0,2.2,1.8,4,4,4h30c3.3,0,6-2.7,6-6
			s-2.7-6-6-6c-0.3,0-0.6,0-1,0.1c-0.5,0.1-1-0.3-1.1-0.8c-0.8-4.2-4.5-7.3-8.8-7.3c-1.6,0-3.1,0.4-4.5,1.2
			c-1.5,0.9-2.7,2.1-3.5,3.6c-0.1,0.3-0.4,0.4-0.7,0.5c-0.3,0.1-0.6,0-0.8-0.2C99.5,41.4,98.3,41,97,41z"/>
	</g>
	<g>
		<path class="st5" d="M104,48c-0.6,0-1-0.4-1-1c0-3.3-2.7-6-6-6c-0.6,0-1-0.4-1-1s0.4-1,1-1c4.4,0,8,3.6,8,8
			C105,47.6,104.6,48,104,48z"/>
	</g>
	<g>
		<path class="st5" d="M115,48.4c-0.2,0-0.4,0-0.5-0.1c-0.5-0.3-0.6-0.9-0.3-1.4c1.5-2.4,4-3.9,6.9-3.9c0.6,0,1,0.4,1,1s-0.4,1-1,1
			c-2.1,0-4,1.1-5.1,2.9C115.7,48.2,115.3,48.4,115,48.4z"/>
	</g>
	<g>
		<path class="st5" d="M86,54c-0.6,0-1-0.4-1-1c0-3.3,2.7-6,6-6c2.4,0,4.5,1.4,5.5,3.6c0.2,0.5,0,1.1-0.5,1.3
			c-0.5,0.2-1.1,0-1.3-0.5C94,49.9,92.6,49,91,49c-2.2,0-4,1.8-4,4C87,53.6,86.6,54,86,54z"/>
	</g>
	<g>
		<g>
			<path class="st8" d="M116,44.8c0.8-0.6,1.7-1.1,2.6-1.4c-1-3.3-3.8-5.7-7.3-6.3C114,38.6,115.9,41.5,116,44.8z"/>
		</g>
	</g>
	<path class="st8" d="M124.1,45.9c0.6,0.9,0.9,2,0.9,3.1c0,3.3-2.7,6-6,6h-2.4H94.4c0.3-0.6,0.6-1.3,0.6-2c0-2-1.4-3.6-3.3-3.9
		c0.8,0.7,1.3,1.8,1.3,2.9c0,2.2-1.8,4-4,4c-0.2,0-0.5,0-0.7-0.1c0.6,0.6,1.5,1,2.4,1c0,0,0.1,0,0.3,0h30c3.3,0,6-2.7,6-6
		C127,48.8,125.8,46.9,124.1,45.9z"/>
	<g>
		<path class="st5" d="M113,59c-2.8,0-5-2.2-5-5c0-0.6,0.4-1,1-1s1,0.4,1,1c0,1.7,1.3,3,3,3c0.6,0,1,0.4,1,1S113.6,59,113,59z"/>
	</g>
</g>
<g>
	<circle class="st1" cx="176" cy="40" r="1"/>
</g>
<g>
	<circle class="st1" cx="176" cy="43" r="1"/>
</g>
<g>
	<circle class="st1" cx="176" cy="46" r="1"/>
</g>
<g>
	<circle class="st1" cx="176" cy="49" r="1"/>
</g>
<g>
	<circle class="st1" cx="176" cy="52" r="1"/>
</g>
<g>
	<circle class="st1" cx="27" cy="59" r="1"/>
</g>
<g>
	<circle class="st1" cx="27" cy="56" r="1"/>
</g>
<g>
	<circle class="st1" cx="27" cy="62" r="1"/>
</g>
<g>
	<path class="st20" d="M19.1,71.6L15,75l-4.1-3.4c-1.2-1-1.9-2.5-1.9-4.1V60h12v7.5C21,69.1,20.3,70.6,19.1,71.6z"/>
	<path class="st1" d="M15,76c-0.2,0-0.5-0.1-0.6-0.2l-4.1-3.4c-1.5-1.2-2.3-3-2.3-4.9V60c0-0.6,0.4-1,1-1h12c0.6,0,1,0.4,1,1v7.5
		c0,1.9-0.8,3.7-2.3,4.9l0,0l-4.1,3.4C15.5,75.9,15.2,76,15,76z M10,61v6.5c0,1.3,0.6,2.5,1.6,3.4l3.4,2.9l3.4-2.9
		c1-0.8,1.6-2.1,1.6-3.4V61H10z M19.1,71.6L19.1,71.6L19.1,71.6z"/>
</g>
<g>
	<path class="st1" d="M14,69c-0.3,0-0.5-0.1-0.7-0.3l-2-2c-0.4-0.4-0.4-1,0-1.4s1-0.4,1.4,0l1.3,1.3l3.3-3.3c0.4-0.4,1-0.4,1.4,0
		s0.4,1,0,1.4l-4,4C14.5,68.9,14.3,69,14,69z"/>
</g>
</svg>
