<svg version="1.1" id="Sknw8hyMX" xmlns="http://www.w3.org/2000/svg" xmlns:xlink="http://www.w3.org/1999/xlink" x="0px" y="0px" viewBox="0 0 76 76" style="enable-background:new 0 0 76.5 76.5;" xml:space="preserve"><style>@-webkit-keyframes rJlhPU3yMX_rk7VF61Mm_Animation{0%{-webkit-transform: scale(1, 1);transform: scale(1, 1);}16.67%{-webkit-transform: scale(0.9, 0.9);transform: scale(0.9, 0.9);}33.33%{-webkit-transform: scale(1.1, 1.1);transform: scale(1.1, 1.1);}50%{-webkit-transform: scale(0.9, 0.9);transform: scale(0.9, 0.9);}66.67%{-webkit-transform: scale(1.1, 1.1);transform: scale(1.1, 1.1);}83.33%{-webkit-transform: scale(0.9, 0.9);transform: scale(0.9, 0.9);}100%{-webkit-transform: scale(1, 1);transform: scale(1, 1);}}@keyframes rJlhPU3yMX_rk7VF61Mm_Animation{0%{-webkit-transform: scale(1, 1);transform: scale(1, 1);}16.67%{-webkit-transform: scale(0.9, 0.9);transform: scale(0.9, 0.9);}33.33%{-webkit-transform: scale(1.1, 1.1);transform: scale(1.1, 1.1);}50%{-webkit-transform: scale(0.9, 0.9);transform: scale(0.9, 0.9);}66.67%{-webkit-transform: scale(1.1, 1.1);transform: scale(1.1, 1.1);}83.33%{-webkit-transform: scale(0.9, 0.9);transform: scale(0.9, 0.9);}100%{-webkit-transform: scale(1, 1);transform: scale(1, 1);}}@-webkit-keyframes H1L3P82kMQ_Animation{0%{opacity: 0;}100%{opacity: 0;}}@keyframes H1L3P82kMQ_Animation{0%{opacity: 0;}100%{opacity: 0;}}@-webkit-keyframes Bkr2DU2yfm_Animation{0%{opacity: 0;}100%{opacity: 0;}}@keyframes Bkr2DU2yfm_Animation{0%{opacity: 0;}100%{opacity: 0;}}@-webkit-keyframes By4nvU3kGm_Animation{0%{opacity: 0;}100%{opacity: 0;}}@keyframes By4nvU3kGm_Animation{0%{opacity: 0;}100%{opacity: 0;}}@-webkit-keyframes S1MnP82kf7_Animation{0%{opacity: 0;}15%{opacity: 0;}26.67%{opacity: 1;}40%{opacity: 1;}50%{opacity: 0;}60%{opacity: 1;}73.33%{opacity: 1;}85%{opacity: 0;}100%{opacity: 0;}}@keyframes S1MnP82kf7_Animation{0%{opacity: 0;}15%{opacity: 0;}26.67%{opacity: 1;}40%{opacity: 1;}50%{opacity: 0;}60%{opacity: 1;}73.33%{opacity: 1;}85%{opacity: 0;}100%{opacity: 0;}}@-webkit-keyframes BkZhvUhkM7_Animation{0%{opacity: 0;}6.67%{opacity: 0;}18.33%{opacity: 1;}31.67%{opacity: 1;}43.33%{opacity: 0;}65%{opacity: 0;}76.67%{opacity: 1;}90%{opacity: 1;}100%{opacity: 0;}}@keyframes BkZhvUhkM7_Animation{0%{opacity: 0;}6.67%{opacity: 0;}18.33%{opacity: 1;}31.67%{opacity: 1;}43.33%{opacity: 0;}65%{opacity: 0;}76.67%{opacity: 1;}90%{opacity: 1;}100%{opacity: 0;}}@-webkit-keyframes BJm3DI3yG7_Animation{0%{opacity: 0;}10%{opacity: 1;}23.33%{opacity: 1;}35%{opacity: 0;}56.67%{opacity: 0;}68.33%{opacity: 1;}81.67%{opacity: 1;}93.33%{opacity: 0;}100%{opacity: 0;}}@keyframes BJm3DI3yG7_Animation{0%{opacity: 0;}10%{opacity: 1;}23.33%{opacity: 1;}35%{opacity: 0;}56.67%{opacity: 0;}68.33%{opacity: 1;}81.67%{opacity: 1;}93.33%{opacity: 0;}100%{opacity: 0;}}#Sknw8hyMX *{-webkit-animation-duration: 6s;animation-duration: 6s;-webkit-animation-iteration-count: infinite;animation-iteration-count: infinite;-webkit-animation-timing-function: cubic-bezier(0, 0, 1, 1);animation-timing-function: cubic-bezier(0, 0, 1, 1);}#BkZhvUhkM7{fill: #404C9B;-webkit-transform-origin: 50% 50%;transform-origin: 50% 50%;transform-box: fill-box;-webkit-animation-name: BkZhvUhkM7_Animation;animation-name: BkZhvUhkM7_Animation;opacity: 0;-webkit-animation-timing-function: cubic-bezier(0.42, 0, 0.58, 1);animation-timing-function: cubic-bezier(0.42, 0, 0.58, 1);}#S1MnP82kf7{fill: #404C9B;-webkit-animation-name: S1MnP82kf7_Animation;animation-name: S1MnP82kf7_Animation;-webkit-transform-origin: 50% 50%;transform-origin: 50% 50%;transform-box: fill-box;opacity: 0;-webkit-animation-timing-function: cubic-bezier(0.42, 0, 0.58, 1);animation-timing-function: cubic-bezier(0.42, 0, 0.58, 1);}#BJm3DI3yG7{fill: #404C9B;-webkit-transform-origin: 50% 50%;transform-origin: 50% 50%;transform-box: fill-box;-webkit-animation-name: BJm3DI3yG7_Animation;animation-name: BJm3DI3yG7_Animation;-webkit-animation-timing-function: cubic-bezier(0.42, 0, 0.58, 1);animation-timing-function: cubic-bezier(0.42, 0, 0.58, 1);opacity: 0;}#By4nvU3kGm{fill: #404C9B;visibility: hidden;-webkit-animation-name: By4nvU3kGm_Animation;animation-name: By4nvU3kGm_Animation;-webkit-transform-origin: 50% 50%;transform-origin: 50% 50%;transform-box: fill-box;}#Bkr2DU2yfm{fill: #404C9B;visibility: hidden;-webkit-animation-name: Bkr2DU2yfm_Animation;animation-name: Bkr2DU2yfm_Animation;-webkit-transform-origin: 50% 50%;transform-origin: 50% 50%;transform-box: fill-box;}#H1L3P82kMQ{fill: #404C9B;visibility: hidden;-webkit-animation-name: H1L3P82kMQ_Animation;animation-name: H1L3P82kMQ_Animation;-webkit-transform-origin: 50% 50%;transform-origin: 50% 50%;transform-box: fill-box;}#rJlhPU3yMX_HkMj8hJM7{-webkit-transform-origin: 50% 50%;transform-origin: 50% 50%;transform-box: fill-box;-webkit-transform: rotate(1080deg);transform: rotate(1080deg);}#rJlhPU3yMX_S1ogD3kzX{-webkit-transform-origin: 50% 50%;transform-origin: 50% 50%;transform-box: fill-box;-webkit-transform: rotate(0deg);transform: rotate(0deg);}#rJlhPU3yMX_SJItAn1zQ{-webkit-transform-origin: 50% 50%;transform-origin: 50% 50%;transform-box: fill-box;}#BJm3DI3yG7_HkH6LpyzX{-webkit-transform-origin: 50% 50%;transform-origin: 50% 50%;transform-box: fill-box;}#rJlhPU3yMX_BJbXtpJzX{-webkit-transform-origin: 50% 50%;transform-origin: 50% 50%;transform-box: fill-box;}#rJlhPU3yMX_rk7VF61Mm{-webkit-animation-name: rJlhPU3yMX_rk7VF61Mm_Animation;animation-name: rJlhPU3yMX_rk7VF61Mm_Animation;-webkit-transform-origin: 50% 50%;transform-origin: 50% 50%;transform-box: fill-box;}</style>
<style type="text/css">
	.st0{fill:#404C9B;}
</style>
<g id="rJlhPU3yMX_rk7VF61Mm" data-animator-group="true" data-animator-type="2"><g id="rJlhPU3yMX">
	<path d="M29.5,28.5c2.3-2.3,2.3-6.1,0-8.4c-2.3-2.3-6.1-2.3-8.4,0c-3.8,3.8-1.4,6.4-4.4,9.4c-3,3-5.6,0.6-9.4,4.4&#10;&#9;&#9;c-2.3,2.3-2.3,6.1,0,8.4c2.3,2.3,6.1,2.3,8.4,0c3.8-3.8,1.4-6.4,4.4-9.4C23,29.9,25.7,32.3,29.5,28.5z" id="BkZhvUhkM7"/>
	<path d="M57.3,28.3c2.3-2.3,2.3-6.1,0-8.4c-2.3-2.3-6.1-2.3-8.4,0c-3.8,3.8-1.4,6.4-4.4,9.4c-3,3-5.6,0.6-9.4,4.4&#10;&#9;&#9;c-2.3,2.3-2.3,6.1,0,8.4c2.3,2.3,6.1,2.3,8.4,0c3.8-3.8,1.4-6.4,4.4-9.4C50.8,29.7,53.5,32.1,57.3,28.3z" id="S1MnP82kf7"/>
	<path d="M34.9,69.9c2.3,2.3,6.1,2.3,8.4,0c2.3-2.3,2.3-6.1,0-8.4c-3.8-3.8-6.4-1.4-9.4-4.4c-3-3-0.6-5.6-4.4-9.4&#10;&#9;&#9;c-2.3-2.3-6.1-2.3-8.4,0c-2.3,2.3-2.3,6.1,0,8.4c3.8,3.8,6.4,1.4,9.4,4.4C33.5,63.5,31.1,66.1,34.9,69.9z" id="BJm3DI3yG7"/>
	<path d="M43.3,14.6c-2.3,2.3-6,2.3-8.3,0c-2.3-2.3-2.3-6,0-8.3c2.3-2.3,6-2.3,8.3,0C45.6,8.6,45.6,12.3,43.3,14.6z" id="By4nvU3kGm"/>
	<circle cx="66.8" cy="38.1" r="5.9" id="Bkr2DU2yfm"/>
	<path d="M57.1,56c-2.3,2.3-6,2.3-8.3,0c-2.3-2.3-2.3-6,0-8.3c2.3-2.3,6-2.3,8.3,0C59.4,50,59.4,53.7,57.1,56z" id="H1L3P82kMQ"/>
	<path class="st0" d="M43.3,14.6c-2.3,2.3-6,2.3-8.3,0c-2.3-2.3-2.3-6,0-8.3c2.3-2.3,6-2.3,8.3,0C45.6,8.6,45.6,12.3,43.3,14.6z"/>
	<circle class="st0" cx="66.8" cy="38.1" r="5.9"/>
	<path class="st0" d="M57.1,56c-2.3,2.3-6,2.3-8.3,0c-2.3-2.3-2.3-6,0-8.3c2.3-2.3,6-2.3,8.3,0C59.4,50,59.4,53.7,57.1,56z"/>
	<path class="st0" d="M29.4,28.3c-2.3,2.3-6,2.3-8.3,0c-2.3-2.3-2.3-6,0-8.3c2.3-2.3,6-2.3,8.3,0C31.7,22.2,31.7,26,29.4,28.3z"/>
	<path class="st0" d="M15.6,42.2c-2.3,2.3-6,2.3-8.3,0c-2.3-2.3-2.3-6,0-8.3c2.3-2.3,6-2.3,8.3,0C17.9,36.2,17.9,39.9,15.6,42.2z"/>
	<path class="st0" d="M29.4,56c-2.3,2.3-6,2.3-8.3,0c-2.3-2.3-2.3-6,0-8.3c2.3-2.3,6-2.3,8.3,0C31.7,50,31.7,53.7,29.4,56z"/>
	<path class="st0" d="M43.3,69.9c-2.3,2.3-6,2.3-8.3,0c-2.3-2.3-2.3-6,0-8.3c2.3-2.3,6-2.3,8.3,0C45.6,63.9,45.6,67.6,43.3,69.9z"/>
	<path class="st0" d="M43.4,42.1c-2.3,2.3-6,2.3-8.3,0c-2.3-2.3-2.3-6,0-8.3c2.3-2.3,6-2.3,8.3,0C45.7,36.1,45.7,39.8,43.4,42.1z"/>
	<path class="st0" d="M57.1,28.3c-2.3,2.3-6,2.3-8.3,0c-2.3-2.3-2.3-6,0-8.3c2.3-2.3,6-2.3,8.3,0C59.4,22.2,59.4,26,57.1,28.3z"/>
</g></g>
<script>(function(){var a=document.querySelector('#Sknw8hyMX'),b=a.querySelectorAll('style'),c=function(d){b.forEach(function(f){var g=f.textContent;g&amp;&amp;(f.textContent=g.replace(/transform-box:[^;\r\n]*/gi,'transform-box: '+d))})};c('initial'),window.requestAnimationFrame(function(){return c('fill-box')})})();</script></svg>