<?xml version="1.0" encoding="utf-8"?>
<!-- Generator: Adobe Illustrator 21.0.0, SVG Export Plug-In . SVG Version: 6.00 Build 0)  -->
<svg version="1.1" id="Layer_1" xmlns="http://www.w3.org/2000/svg" xmlns:xlink="http://www.w3.org/1999/xlink" x="0px" y="0px"
	 viewBox="0 0 198 94" style="enable-background:new 0 0 198 94;" xml:space="preserve">
<style type="text/css">
	.st0{fill:#C7EAFB;}
	.st1{fill:#A7B0C4;}
	.st2{fill:#EDF1F9;}
	.st3{fill:#D5E3EE;}
	.st4{fill:#D7F0FC;}
	.st5{fill:#ABBBC6;}
	.st6{fill:#FFFFFF;}
	.st7{fill:#0F395A;}
	.st8{fill:#CAD5E3;}
	.st9{fill:#B0C4D8;}
	.st10{fill:#9AB5CD;}
	.st11{fill:#F04D4E;}
	.st12{fill:#577280;}
	.st13{fill:#F47423;}
	.st14{fill:#F6B545;}
	.st15{fill:#FFCB5D;}
	.st16{fill:#71B8E5;}
	.st17{fill:#F16B56;}
	.st18{fill:#66869B;}
	.st19{fill:#4F6A7C;}
	.st20{fill:#EFCAAF;}
	.st21{fill:#E2B698;}
	.st22{fill:#4E9CD5;}
	.st23{fill:#368ACA;}
	.st24{fill:#F04E4F;}
	.st25{fill:#DB3540;}
	.st26{fill:#EA9344;}
	.st27{fill:#567789;}
	.st28{fill:#89C764;}
	.st29{fill:#F48576;}
	.st30{fill:#3DB54A;}
</style>
<g>
	<g>
		<path class="st0" d="M89,31c2.2,0,4,1.8,4,4v38H17V35c0-2.2,1.8-4,4-4H89z"/>
		<path class="st1" d="M93,74H17c-0.6,0-1-0.4-1-1V35c0-2.8,2.2-5,5-5h68c2.8,0,5,2.2,5,5v38C94,73.6,93.6,74,93,74z M18,72h74V35
			c0-1.7-1.3-3-3-3H21c-1.7,0-3,1.3-3,3V72z"/>
	</g>
	<g>
		<path class="st2" d="M93,73H17v6c0,2.2,1.8,4,4,4h68c2.2,0,4-1.8,4-4V73z"/>
		<path class="st1" d="M89,84H21c-2.8,0-5-2.2-5-5v-6c0-0.6,0.4-1,1-1h76c0.6,0,1,0.4,1,1v6C94,81.8,91.8,84,89,84z M18,74v5
			c0,1.7,1.3,3,3,3h68c1.7,0,3-1.3,3-3v-5H18z"/>
	</g>
	<g>
		<path class="st2" d="M65,93H45c1.7,0,3-1.3,3-3v-7h14v7C62,91.7,63.3,93,65,93z"/>
		<path class="st1" d="M65,94H45c-0.6,0-1-0.4-1-1s0.4-1,1-1c1.1,0,2-0.9,2-2v-7c0-0.6,0.4-1,1-1h14c0.6,0,1,0.4,1,1v7
			c0,1.1,0.9,2,2,2c0.6,0,1,0.4,1,1S65.6,94,65,94z M48.5,92h13.1c-0.3-0.6-0.5-1.3-0.5-2v-6H49v6C49,90.7,48.8,91.4,48.5,92z"/>
	</g>
	<g>
		<path class="st3" d="M61,90v-6h-1h-0.5H49v2h8.5c1.1,0,2,0.9,2,2v2c0,0.7,0.2,1.4,0.5,2h1.5C61.2,91.4,61,90.7,61,90z"/>
	</g>
	<g>
		<circle class="st1" cx="55" cy="78" r="2"/>
	</g>
	<g>
		<polygon class="st4" points="49,72 39,72 49,32 59,32 		"/>
	</g>
	<g>
		<polygon class="st4" points="58,72 53,72 63,32 68,32 		"/>
	</g>
</g>
<g>
	<g>
		<path class="st5" d="M156,58h-38c-1.1,0-2-0.9-2-2V26c0-1.1,0.9-2,2-2h38c1.1,0,2,0.9,2,2v30C158,57.1,157.1,58,156,58z"/>
		<path class="st1" d="M156,59h-38c-1.7,0-3-1.3-3-3V26c0-1.7,1.3-3,3-3h38c1.7,0,3,1.3,3,3v30C159,57.7,157.7,59,156,59z M118,25
			c-0.6,0-1,0.4-1,1v30c0,0.6,0.4,1,1,1h38c0.6,0,1-0.4,1-1V26c0-0.6-0.4-1-1-1H118z"/>
	</g>
	<g>
		<path class="st2" d="M158,30h-42v-4c0-1.1,0.9-2,2-2h38c1.1,0,2,0.9,2,2V30z"/>
		<path class="st1" d="M158,31h-42c-0.6,0-1-0.4-1-1v-4c0-1.7,1.3-3,3-3h38c1.7,0,3,1.3,3,3v4C159,30.6,158.6,31,158,31z M117,29h40
			v-3c0-0.6-0.4-1-1-1h-38c-0.6,0-1,0.4-1,1V29z"/>
	</g>
	<g>
		<circle class="st1" cx="119" cy="27" r="1"/>
	</g>
	<g>
		<circle class="st1" cx="122" cy="27" r="1"/>
	</g>
	<g>
		<circle class="st1" cx="125" cy="27" r="1"/>
	</g>
	<g>
		<g>
			<path class="st6" d="M133,35h-4c-0.6,0-1-0.4-1-1s0.4-1,1-1h4c0.6,0,1,0.4,1,1S133.6,35,133,35z"/>
		</g>
	</g>
	<g>
		<g>
			<path class="st6" d="M149,39h-11c-0.6,0-1-0.4-1-1s0.4-1,1-1h11c0.6,0,1,0.4,1,1S149.6,39,149,39z"/>
		</g>
	</g>
	<g>
		<g>
			<path class="st6" d="M140,43h-9c-0.6,0-1-0.4-1-1s0.4-1,1-1h9c0.6,0,1,0.4,1,1S140.6,43,140,43z"/>
		</g>
	</g>
	<g>
		<g>
			<path class="st6" d="M152,35h-9c-0.6,0-1-0.4-1-1s0.4-1,1-1h9c0.6,0,1,0.4,1,1S152.6,35,152,35z"/>
		</g>
	</g>
	<g>
		<g>
			<path class="st6" d="M154,47h-6c-0.6,0-1-0.4-1-1s0.4-1,1-1h6c0.6,0,1,0.4,1,1S154.6,47,154,47z"/>
		</g>
	</g>
	<g>
		<g>
			<path class="st6" d="M133,47h-4c-0.6,0-1-0.4-1-1s0.4-1,1-1h4c0.6,0,1,0.4,1,1S133.6,47,133,47z"/>
		</g>
	</g>
	<g>
		<g>
			<path class="st6" d="M140,51h-9c-0.6,0-1-0.4-1-1s0.4-1,1-1h9c0.6,0,1,0.4,1,1S140.6,51,140,51z"/>
		</g>
	</g>
	<g>
		<g>
			<path class="st6" d="M150,55h-10c-0.6,0-1-0.4-1-1s0.4-1,1-1h10c0.6,0,1,0.4,1,1S150.6,55,150,55z"/>
		</g>
	</g>
	<g>
		<path class="st6" d="M126,57h-8c-0.6,0-1-0.4-1-1V31h9V57z"/>
	</g>
	<g>
		<g>
			<path class="st1" d="M123,35h-3c-0.6,0-1-0.4-1-1s0.4-1,1-1h3c0.6,0,1,0.4,1,1S123.6,35,123,35z"/>
		</g>
	</g>
	<g>
		<g>
			<path class="st1" d="M123,39h-3c-0.6,0-1-0.4-1-1s0.4-1,1-1h3c0.6,0,1,0.4,1,1S123.6,39,123,39z"/>
		</g>
	</g>
	<g>
		<g>
			<path class="st1" d="M122,43h-2c-0.6,0-1-0.4-1-1s0.4-1,1-1h2c0.6,0,1,0.4,1,1S122.6,43,122,43z"/>
		</g>
	</g>
	<g>
		<g>
			<path class="st1" d="M123,47h-3c-0.6,0-1-0.4-1-1s0.4-1,1-1h3c0.6,0,1,0.4,1,1S123.6,47,123,47z"/>
		</g>
	</g>
	<g>
		<g>
			<path class="st1" d="M122,51h-2c-0.6,0-1-0.4-1-1s0.4-1,1-1h2c0.6,0,1,0.4,1,1S122.6,51,122,51z"/>
		</g>
	</g>
	<g>
		<g>
			<path class="st1" d="M123,55h-3c-0.6,0-1-0.4-1-1s0.4-1,1-1h3c0.6,0,1,0.4,1,1S123.6,55,123,55z"/>
		</g>
	</g>
</g>
<g>
	<g>
		<path class="st2" d="M125,93H73c-3.3,0-6-2.7-6-6V51h64v36C131,90.3,128.3,93,125,93z"/>
		<path class="st7" d="M125,94H73c-3.9,0-7-3.1-7-7V51c0-0.6,0.4-1,1-1h64c0.6,0,1,0.4,1,1v36C132,90.9,128.9,94,125,94z M68,52v35
			c0,2.8,2.2,5,5,5h52c2.8,0,5-2.2,5-5V52H68z"/>
	</g>
	<g>
		<path class="st3" d="M130,87c0-2.8-2.2-5-5-5v10C127.8,92,130,89.8,130,87z"/>
	</g>
	<g>
		<path class="st3" d="M68,87c0,2.8,2.2,5,5,5V82C70.2,82,68,84.2,68,87z"/>
	</g>
	<g>
		<path class="st8" d="M128,83c-0.8-0.6-1.9-1-3-1v2c0.3,0,0.6,0.1,0.9,0.1c1.3,0.3,2.1,1.5,2.1,2.8l0,4c1.2-0.9,2-2.3,2-4
			S129.2,83.9,128,83z"/>
	</g>
	<g>
		<path class="st8" d="M70,83c0.8-0.6,1.9-1,3-1v2c-0.3,0-0.6,0.1-0.9,0.1c-1.3,0.3-2.1,1.5-2.1,2.8l0,4c-1.2-0.9-2-2.3-2-4
			S68.8,83.9,70,83z"/>
	</g>
	<g>
		<path class="st9" d="M122,90L122,90c-1.7,0-3-1.3-3-3V54h6v33C125,88.7,123.7,90,122,90z"/>
		<path class="st7" d="M122,91c-2.2,0-4-1.8-4-4V54c0-0.6,0.4-1,1-1h6c0.6,0,1,0.4,1,1v33C126,89.2,124.2,91,122,91z M120,55v32
			c0,1.1,0.9,2,2,2s2-0.9,2-2V55H120z"/>
	</g>
	<g>
		<path class="st2" d="M125,39c-3.3,0-6,2.7-6,6v42c0-3.3,2.7-6,6-6s6,2.7,6,6V45C131,41.7,128.3,39,125,39z"/>
		<path class="st7" d="M131,88c-0.6,0-1-0.4-1-1c0-2.8-2.2-5-5-5s-5,2.2-5,5c0,0.6-0.4,1-1,1s-1-0.4-1-1V45c0-3.9,3.1-7,7-7
			s7,3.1,7,7v42C132,87.6,131.6,88,131,88z M125,80c2,0,3.7,0.8,5,2.1V45c0-2.8-2.2-5-5-5s-5,2.2-5,5v37.1C121.3,80.8,123,80,125,80
			z"/>
	</g>
	<g>
		<path class="st10" d="M124,82.1v1.2c-1.8,0.8-3,2.5-3,4.6c0,0.3,0.1,0.7,0.3,1c-0.7-0.3-1.3-1-1.3-1.9
			C120,84.6,121.7,82.6,124,82.1z"/>
	</g>
	<g>
		<path class="st3" d="M128,41v39.7c0.7,0.4,1.4,0.8,2,1.4V45C130,43.4,129.2,41.9,128,41z"/>
	</g>
	<g>
		<path class="st3" d="M73,92h5c2.8,0,5-2.2,5-5V52H73V92z"/>
	</g>
	<g>
		<path class="st9" d="M76,90L76,90c-1.7,0-3-1.3-3-3V54h6v33C79,88.7,77.7,90,76,90z"/>
		<path class="st7" d="M76,91c-2.2,0-4-1.8-4-4V54c0-0.6,0.4-1,1-1h6c0.6,0,1,0.4,1,1v33C80,89.2,78.2,91,76,91z M74,55v32
			c0,1.1,0.9,2,2,2s2-0.9,2-2V55H74z"/>
	</g>
	<g>
		<path class="st2" d="M73,39c-3.3,0-6,2.7-6,6v42c0-3.3,2.7-6,6-6s6,2.7,6,6V45C79,41.7,76.3,39,73,39z"/>
		<path class="st7" d="M79,88c-0.6,0-1-0.4-1-1c0-2.8-2.2-5-5-5s-5,2.2-5,5c0,0.6-0.4,1-1,1s-1-0.4-1-1V45c0-3.9,3.1-7,7-7
			s7,3.1,7,7v42C80,87.6,79.6,88,79,88z M73,80c2,0,3.7,0.8,5,2.1V45c0-2.8-2.2-5-5-5s-5,2.2-5,5v37.1C69.3,80.8,71,80,73,80z"/>
	</g>
	<g>
		<path class="st10" d="M74,82.1v1.2c1.8,0.8,3,2.5,3,4.6c0,0.3-0.1,0.7-0.3,1c0.7-0.3,1.3-1,1.3-1.9C78,84.6,76.3,82.6,74,82.1z"/>
	</g>
	<g>
		<path class="st3" d="M76,41v39.7c0.7,0.4,1.4,0.8,2,1.4V45C78,43.4,77.2,41.9,76,41z"/>
	</g>
	<g>
		<rect x="85" y="55" class="st11" width="3" height="12"/>
	</g>
	<g>
		<rect x="89" y="61" class="st11" width="3" height="6"/>
	</g>
	<g>
		<rect x="93" y="57" class="st11" width="3" height="10"/>
	</g>
	<g>
		<g>
			<path class="st12" d="M109,57h-9c-0.6,0-1-0.4-1-1s0.4-1,1-1h9c0.6,0,1,0.4,1,1S109.6,57,109,57z"/>
		</g>
	</g>
	<g>
		<g>
			<path class="st12" d="M105,61h-5c-0.6,0-1-0.4-1-1s0.4-1,1-1h5c0.6,0,1,0.4,1,1S105.6,61,105,61z"/>
		</g>
	</g>
	<g>
		<g>
			<path class="st12" d="M110,61h-2c-0.6,0-1-0.4-1-1s0.4-1,1-1h2c0.6,0,1,0.4,1,1S110.6,61,110,61z"/>
		</g>
	</g>
	<g>
		<g>
			<path class="st12" d="M91,74h-5c-0.6,0-1-0.4-1-1s0.4-1,1-1h5c0.6,0,1,0.4,1,1S91.6,74,91,74z"/>
		</g>
	</g>
	<g>
		<g>
			<path class="st12" d="M96,74h-2c-0.6,0-1-0.4-1-1s0.4-1,1-1h2c0.6,0,1,0.4,1,1S96.6,74,96,74z"/>
		</g>
	</g>
	<g>
		<g>
			<path class="st12" d="M114,57h-2c-0.6,0-1-0.4-1-1s0.4-1,1-1h2c0.6,0,1,0.4,1,1S114.6,57,114,57z"/>
		</g>
	</g>
	<g>
		<circle class="st11" cx="86.5" cy="68.5" r="0.5"/>
	</g>
	<g>
		<circle class="st11" cx="90.5" cy="68.5" r="0.5"/>
	</g>
	<g>
		<circle class="st11" cx="94.5" cy="68.5" r="0.5"/>
	</g>
	<g>
		<path class="st13" d="M92,77v5h5C97,79.2,94.8,77,92,77z"/>
	</g>
	<g>
		<path class="st14" d="M91,78c-2.8,0-5,2.2-5,5s2.2,5,5,5s5-2.2,5-5h-5V78z"/>
	</g>
</g>
<g>
	<circle class="st15" cx="115" cy="13" r="1"/>
</g>
<g>
	<circle class="st15" cx="166" cy="13" r="1"/>
</g>
<g>
	<circle class="st15" cx="195" cy="57" r="1"/>
</g>
<g>
	<circle class="st15" cx="124" cy="16" r="1"/>
</g>
<g>
	<circle class="st16" cx="86" cy="8" r="1"/>
</g>
<g>
	<circle class="st16" cx="11" cy="46" r="1"/>
</g>
<g>
	<circle class="st16" cx="35" cy="24" r="1"/>
</g>
<g>
	<circle class="st16" cx="184" cy="86" r="1"/>
</g>
<g>
	<circle class="st17" cx="48" cy="15" r="1"/>
</g>
<g>
	<circle class="st17" cx="75" cy="2" r="1"/>
</g>
<g>
	<circle class="st17" cx="149" cy="16" r="1"/>
</g>
<g>
	<circle class="st17" cx="11" cy="82" r="1"/>
</g>
<g>
	<circle class="st17" cx="5" cy="74" r="1"/>
</g>
<g>
	<path class="st14" d="M10,31c-1.7,0-3-1.3-3-3s1.3-3,3-3s3,1.3,3,3S11.7,31,10,31z M10,27c-0.6,0-1,0.4-1,1s0.4,1,1,1s1-0.4,1-1
		S10.6,27,10,27z"/>
</g>
<g>
	<path class="st14" d="M36,11c-1.7,0-3-1.3-3-3s1.3-3,3-3s3,1.3,3,3S37.7,11,36,11z M36,7c-0.6,0-1,0.4-1,1s0.4,1,1,1s1-0.4,1-1
		S36.6,7,36,7z"/>
</g>
<g>
	<path class="st17" d="M191,39c-1.7,0-3-1.3-3-3s1.3-3,3-3s3,1.3,3,3S192.7,39,191,39z M191,35c-0.6,0-1,0.4-1,1s0.4,1,1,1
		s1-0.4,1-1S191.6,35,191,35z"/>
</g>
<g>
	<path class="st16" d="M74,20c-1.7,0-3-1.3-3-3s1.3-3,3-3s3,1.3,3,3S75.7,20,74,20z M74,16c-0.6,0-1,0.4-1,1s0.4,1,1,1s1-0.4,1-1
		S74.6,16,74,16z"/>
</g>
<g>
	<path class="st16" d="M8,66c-1.7,0-3-1.3-3-3s1.3-3,3-3s3,1.3,3,3S9.7,66,8,66z M8,62c-0.6,0-1,0.4-1,1s0.4,1,1,1s1-0.4,1-1
		S8.6,62,8,62z"/>
</g>
<path class="st14" d="M193.9,81.5l0.8-0.8c0.4-0.4,0.4-1,0-1.4s-1-0.4-1.4,0l-0.8,0.8l-0.8-0.8c-0.4-0.4-1-0.4-1.4,0s-0.4,1,0,1.4
	l0.8,0.8l-0.8,0.8c-0.4,0.4-0.4,1,0,1.4c0.2,0.2,0.5,0.3,0.7,0.3s0.5-0.1,0.7-0.3l0.8-0.8l0.8,0.8c0.2,0.2,0.5,0.3,0.7,0.3
	s0.5-0.1,0.7-0.3c0.4-0.4,0.4-1,0-1.4L193.9,81.5z"/>
<path class="st14" d="M60.9,10.5l0.8-0.8c0.4-0.4,0.4-1,0-1.4s-1-0.4-1.4,0l-0.8,0.8l-0.8-0.8c-0.4-0.4-1-0.4-1.4,0s-0.4,1,0,1.4
	l0.8,0.8l-0.8,0.8c-0.4,0.4-0.4,1,0,1.4c0.2,0.2,0.5,0.3,0.7,0.3s0.5-0.1,0.7-0.3l0.8-0.8l0.8,0.8c0.2,0.2,0.5,0.3,0.7,0.3
	s0.5-0.1,0.7-0.3c0.4-0.4,0.4-1,0-1.4L60.9,10.5z"/>
<path class="st17" d="M131.9,8.5l0.8-0.8c0.4-0.4,0.4-1,0-1.4s-1-0.4-1.4,0l-0.8,0.8l-0.8-0.8c-0.4-0.4-1-0.4-1.4,0s-0.4,1,0,1.4
	l0.8,0.8l-0.8,0.8c-0.4,0.4-0.4,1,0,1.4c0.2,0.2,0.5,0.3,0.7,0.3s0.5-0.1,0.7-0.3l0.8-0.8l0.8,0.8c0.2,0.2,0.5,0.3,0.7,0.3
	s0.5-0.1,0.7-0.3c0.4-0.4,0.4-1,0-1.4L131.9,8.5z"/>
<path class="st17" d="M18.9,17.5l0.8-0.8c0.4-0.4,0.4-1,0-1.4s-1-0.4-1.4,0l-0.8,0.8l-0.8-0.8c-0.4-0.4-1-0.4-1.4,0s-0.4,1,0,1.4
	l0.8,0.8l-0.8,0.8c-0.4,0.4-0.4,1,0,1.4c0.2,0.2,0.5,0.3,0.7,0.3s0.5-0.1,0.7-0.3l0.8-0.8l0.8,0.8c0.2,0.2,0.5,0.3,0.7,0.3
	s0.5-0.1,0.7-0.3c0.4-0.4,0.4-1,0-1.4L18.9,17.5z"/>
<path class="st16" d="M173.9,25.5l0.8-0.8c0.4-0.4,0.4-1,0-1.4s-1-0.4-1.4,0l-0.8,0.8l-0.8-0.8c-0.4-0.4-1-0.4-1.4,0s-0.4,1,0,1.4
	l0.8,0.8l-0.8,0.8c-0.4,0.4-0.4,1,0,1.4c0.2,0.2,0.5,0.3,0.7,0.3s0.5-0.1,0.7-0.3l0.8-0.8l0.8,0.8c0.2,0.2,0.5,0.3,0.7,0.3
	s0.5-0.1,0.7-0.3c0.4-0.4,0.4-1,0-1.4L173.9,25.5z"/>
<g>
	<g>
		<path class="st16" d="M101,5c-0.3,0-0.5-0.1-0.7-0.3l-3-3c-0.4-0.4-0.4-1,0-1.4s1-0.4,1.4,0l3,3c0.4,0.4,0.4,1,0,1.4
			C101.5,4.9,101.3,5,101,5z"/>
	</g>
	<g>
		<path class="st16" d="M98,5c-0.3,0-0.5-0.1-0.7-0.3c-0.4-0.4-0.4-1,0-1.4l3-3c0.4-0.4,1-0.4,1.4,0s0.4,1,0,1.4l-3,3
			C98.5,4.9,98.3,5,98,5z"/>
	</g>
</g>
<g>
	<path class="st7" d="M184,94H14c-0.6,0-1-0.4-1-1s0.4-1,1-1h170c0.6,0,1,0.4,1,1S184.6,94,184,94z"/>
</g>
<g>
	<circle class="st7" cx="197" cy="93" r="1"/>
</g>
<g>
	<path class="st7" d="M193,94h-5c-0.6,0-1-0.4-1-1s0.4-1,1-1h5c0.6,0,1,0.4,1,1S193.6,94,193,94z"/>
</g>
<g>
	<circle class="st7" cx="1" cy="93" r="1"/>
</g>
<g>
	<path class="st7" d="M10,94H5c-0.6,0-1-0.4-1-1s0.4-1,1-1h5c0.6,0,1,0.4,1,1S10.6,94,10,94z"/>
</g>
<g>
	<circle class="st7" cx="99" cy="48" r="1"/>
</g>
<g>
	<circle class="st7" cx="99" cy="45" r="1"/>
</g>
<g>
	<circle class="st7" cx="99" cy="42" r="1"/>
</g>
<g>
	<g>
		<path class="st9" d="M184,78h-22c-1.1,0-2-0.9-2-2V44c0-1.1,0.9-2,2-2h22c1.1,0,2,0.9,2,2v32C186,77.1,185.1,78,184,78z"/>
		<path class="st7" d="M184,79h-22c-1.7,0-3-1.3-3-3V44c0-1.7,1.3-3,3-3h22c1.7,0,3,1.3,3,3v32C187,77.7,185.7,79,184,79z M162,43
			c-0.6,0-1,0.4-1,1v32c0,0.6,0.4,1,1,1h22c0.6,0,1-0.4,1-1V44c0-0.6-0.4-1-1-1H162z"/>
	</g>
	<g>
		<path class="st3" d="M181,78h-22c-1.1,0-2-0.9-2-2V44c0-1.1,0.9-2,2-2h22c1.1,0,2,0.9,2,2v32C183,77.1,182.1,78,181,78z"/>
		<path class="st7" d="M181,79h-22c-1.7,0-3-1.3-3-3V44c0-1.7,1.3-3,3-3h22c1.7,0,3,1.3,3,3v32C184,77.7,182.7,79,181,79z M159,43
			c-0.6,0-1,0.4-1,1v32c0,0.6,0.4,1,1,1h22c0.6,0,1-0.4,1-1V44c0-0.6-0.4-1-1-1H159z"/>
	</g>
	<g>
		<path class="st2" d="M178,78h-22c-1.1,0-2-0.9-2-2V44c0-1.1,0.9-2,2-2h16l8,8v26C180,77.1,179.1,78,178,78z"/>
		<path class="st7" d="M178,79h-22c-1.7,0-3-1.3-3-3V44c0-1.7,1.3-3,3-3h16c0.3,0,0.5,0.1,0.7,0.3l8,8c0.2,0.2,0.3,0.4,0.3,0.7v26
			C181,77.7,179.7,79,178,79z M156,43c-0.6,0-1,0.4-1,1v32c0,0.6,0.4,1,1,1h22c0.6,0,1-0.4,1-1V50.4l-7.4-7.4H156z"/>
	</g>
	<g>
		<path class="st2" d="M174,50h6l-8-8v6C172,49.1,172.9,50,174,50z"/>
		<path class="st7" d="M180,51h-6c-1.7,0-3-1.3-3-3v-6c0-0.4,0.2-0.8,0.6-0.9c0.4-0.2,0.8-0.1,1.1,0.2l8,8c0.3,0.3,0.4,0.7,0.2,1.1
			C180.8,50.8,180.4,51,180,51z M173,44.4V48c0,0.6,0.4,1,1,1h3.6L173,44.4z"/>
	</g>
	<g>
		<path class="st7" d="M163,52c-1.7,0-3-1.3-3-3v-9c0-1.7,1.3-3,3-3s3,1.3,3,3v2c0,0.6-0.4,1-1,1s-1-0.4-1-1v-2c0-0.6-0.4-1-1-1
			s-1,0.4-1,1v9c0,0.6,0.4,1,1,1s1-0.4,1-1v-3c0-0.6,0.4-1,1-1s1,0.4,1,1v3C166,50.7,164.7,52,163,52z"/>
	</g>
	<g>
		<g>
			<path class="st12" d="M167,57h-9c-0.6,0-1-0.4-1-1s0.4-1,1-1h9c0.6,0,1,0.4,1,1S167.6,57,167,57z"/>
		</g>
	</g>
	<g>
		<g>
			<path class="st12" d="M170,69h-12c-0.6,0-1-0.4-1-1s0.4-1,1-1h12c0.6,0,1,0.4,1,1S170.6,69,170,69z"/>
		</g>
	</g>
	<g>
		<g>
			<path class="st12" d="M167,65h-9c-0.6,0-1-0.4-1-1s0.4-1,1-1h9c0.6,0,1,0.4,1,1S167.6,65,167,65z"/>
		</g>
	</g>
	<g>
		<g>
			<path class="st12" d="M176,57h-6c-0.6,0-1-0.4-1-1s0.4-1,1-1h6c0.6,0,1,0.4,1,1S176.6,57,176,57z"/>
		</g>
	</g>
	<g>
		<g>
			<path class="st12" d="M164,61h-6c-0.6,0-1-0.4-1-1s0.4-1,1-1h6c0.6,0,1,0.4,1,1S164.6,61,164,61z"/>
		</g>
	</g>
	<g>
		<g>
			<path class="st12" d="M171,61h-4c-0.6,0-1-0.4-1-1s0.4-1,1-1h4c0.6,0,1,0.4,1,1S171.6,61,171,61z"/>
		</g>
	</g>
	<g>
		<g>
			<path class="st12" d="M173,65h-3c-0.6,0-1-0.4-1-1s0.4-1,1-1h3c0.6,0,1,0.4,1,1S173.6,65,173,65z"/>
		</g>
	</g>
	<g>
		<path class="st17" d="M173,75c-2.2,0-4-1.8-4-4s1.8-4,4-4s4,1.8,4,4S175.2,75,173,75z M173,69c-1.1,0-2,0.9-2,2s0.9,2,2,2
			s2-0.9,2-2S174.1,69,173,69z"/>
	</g>
	<g>
		<circle class="st17" cx="173" cy="71" r="1"/>
	</g>
</g>
<g>
	<g>
		<path class="st18" d="M71,93H59c-1.1,0-2-0.9-2-2V67c0-1.1,0.9-2,2-2h12c1.1,0,2,0.9,2,2v24C73,92.1,72.1,93,71,93z"/>
		<path class="st7" d="M71,94H59c-1.7,0-3-1.3-3-3V67c0-1.7,1.3-3,3-3h12c1.7,0,3,1.3,3,3v24C74,92.7,72.7,94,71,94z M59,66
			c-0.6,0-1,0.4-1,1v24c0,0.6,0.4,1,1,1h12c0.6,0,1-0.4,1-1V67c0-0.6-0.4-1-1-1H59z"/>
	</g>
	<g>
		<rect x="58" y="71" class="st19" width="14" height="15"/>
		<path class="st7" d="M73,88H57c-0.6,0-1-0.4-1-1V70c0-0.6,0.4-1,1-1h16c0.6,0,1,0.4,1,1v17C74,87.6,73.6,88,73,88z M58,86h14V71
			H58V86z"/>
	</g>
	<g>
		<circle class="st7" cx="65" cy="90" r="1"/>
	</g>
	<g>
		<polygon class="st12" points="65,86 62,86 72,76 72,79 		"/>
	</g>
	<g>
		<polygon class="st12" points="72,86 67,86 72,81 		"/>
	</g>
</g>
<g>
	<g>
		<polygon class="st20" points="40,93 24,93 22,66 42,66 		"/>
		<path class="st7" d="M40,94H24c-0.5,0-1-0.4-1-0.9l-2-27c0-0.3,0.1-0.6,0.3-0.8c0.2-0.2,0.5-0.3,0.7-0.3h20c0.3,0,0.5,0.1,0.7,0.3
			c0.2,0.2,0.3,0.5,0.3,0.8l-2,27C41,93.6,40.5,94,40,94z M24.9,92h14.1l1.9-25H23.1L24.9,92z"/>
	</g>
	<g>
		<polygon class="st2" points="43,66 21,66 21,64 22,62 42,62 43,64 		"/>
		<path class="st7" d="M43,67H21c-0.6,0-1-0.4-1-1v-2c0-0.2,0-0.3,0.1-0.4l1-2c0.2-0.3,0.5-0.6,0.9-0.6h20c0.4,0,0.7,0.2,0.9,0.6
			l1,2C44,63.7,44,63.8,44,64v2C44,66.6,43.6,67,43,67z M22,65h20v-0.8L41.4,63H22.6L22,64.2V65z"/>
	</g>
	<g>
		<path class="st2" d="M39,62H25l0.5-1.6c0.3-0.8,1-1.4,1.9-1.4h9.1c0.9,0,1.6,0.6,1.9,1.4L39,62z"/>
		<path class="st7" d="M39,63H25c-0.3,0-0.6-0.2-0.8-0.4s-0.2-0.6-0.1-0.9l0.5-1.6c0.4-1.2,1.6-2.1,2.8-2.1h9.1
			c1.3,0,2.4,0.8,2.8,2.1l0.5,1.6c0.1,0.3,0.1,0.6-0.1,0.9S39.3,63,39,63z M26.4,61h11.2l-0.1-0.3C37.4,60.3,37,60,36.6,60h-9.1
			c-0.4,0-0.8,0.3-0.9,0.7L26.4,61z"/>
	</g>
	<g>
		<path class="st8" d="M40,63c-0.6,0.6-1.5,1-2.4,1H22.1L22,64.2V65h20v-0.8L41.4,63H40z"/>
	</g>
	<g>
		<path class="st21" d="M23.1,67l0.1,2h11.7c1.1,0,2,1,2,2.1l-0.8,18c0,1.1-0.9,1.9-2,1.9h-9.2l0.1,1h14.1l1.9-25H23.1z"/>
	</g>
	<g>
		<polygon class="st22" points="40.7,83 41.3,75 22.7,75 23.3,83 		"/>
		<path class="st7" d="M40.7,84H23.3c-0.5,0-1-0.4-1-0.9l-0.6-8c0-0.3,0.1-0.6,0.3-0.8c0.2-0.2,0.5-0.3,0.7-0.3h18.7
			c0.3,0,0.5,0.1,0.7,0.3c0.2,0.2,0.3,0.5,0.3,0.8l-0.6,8C41.7,83.6,41.3,84,40.7,84z M24.2,82h15.6l0.4-6H23.7L24.2,82z"/>
	</g>
	<g>
		<path class="st8" d="M36.6,60H34v1h3.6l-0.1-0.3C37.4,60.3,37,60,36.6,60z"/>
	</g>
	<g>
		<polygon class="st23" points="40.3,76 36.7,76 36.4,82 39.8,82 		"/>
	</g>
	<g>
		<circle class="st6" cx="32" cy="40" r="1"/>
	</g>
	<g>
		<circle class="st6" cx="36" cy="48" r="1"/>
	</g>
	<g>
		<path class="st6" d="M32,56c-0.6,0-1-0.4-1-1v-3.5c0-0.6-0.3-1.3-0.8-1.7l-1.5-1.2c-1-0.8-1.6-2-1.6-3.3V44c0-0.6,0.4-1,1-1
			s1,0.4,1,1v1.5c0,0.6,0.3,1.3,0.8,1.7l1.5,1.2c1,0.8,1.6,2,1.6,3.3V55C33,55.6,32.6,56,32,56z"/>
	</g>
	<g>
		<path class="st6" d="M28,56c-0.6,0-1-0.4-1-1v-4c0-0.6,0.4-1,1-1s1,0.4,1,1v4C29,55.6,28.6,56,28,56z"/>
	</g>
	<g>
		<path class="st6" d="M36,56c-0.6,0-1-0.4-1-1v-4c0-0.6,0.4-1,1-1s1,0.4,1,1v4C37,55.6,36.6,56,36,56z"/>
	</g>
	<g>
		<path class="st6" d="M32,47c-0.6,0-1-0.4-1-1v-3c0-0.6,0.4-1,1-1s1,0.4,1,1v3C33,46.6,32.6,47,32,47z"/>
	</g>
</g>
<g>
	<path class="st3" d="M114,92V73c0-0.1,0-0.2-0.1-0.4l-3-8c-0.1-0.4-0.5-0.6-0.9-0.6s-0.8,0.3-0.9,0.6l-3,8c0,0.1-0.1,0.2-0.1,0.4
		v19H114z"/>
</g>
<g>
	<g>
		<polygon class="st20" points="105,71 108,63 111,71 		"/>
		<path class="st7" d="M111,72h-6c-0.3,0-0.6-0.2-0.8-0.4c-0.2-0.3-0.2-0.6-0.1-0.9l3-8c0.1-0.4,0.5-0.6,0.9-0.6s0.8,0.3,0.9,0.6
			l3,8c0.1,0.3,0.1,0.7-0.1,0.9C111.6,71.8,111.3,72,111,72z M106.4,70h3.1l-1.6-4.2L106.4,70z"/>
	</g>
	<g>
		<polygon class="st21" points="108,65.5 107.9,65.6 108,70 109.5,70 		"/>
	</g>
	<g>
		<path class="st7" d="M109,67h-2c-0.6,0-1-0.4-1-1s0.4-1,1-1h2c0.6,0,1,0.4,1,1S109.6,67,109,67z"/>
	</g>
	<g>
		<path class="st24" d="M109,93h-2c-1.1,0-2-0.9-2-2v-2h6v2C111,92.1,110.1,93,109,93z"/>
		<path class="st7" d="M109,94h-2c-1.7,0-3-1.3-3-3v-2c0-0.6,0.4-1,1-1h6c0.6,0,1,0.4,1,1v2C112,92.7,110.7,94,109,94z M106,90v1
			c0,0.6,0.4,1,1,1h2c0.6,0,1-0.4,1-1v-1H106z"/>
	</g>
	<g>
		<path class="st25" d="M109,92v-2h1v1C110,91.6,109.6,92,109,92z"/>
	</g>
	<g>
		<path class="st7" d="M108,86c-0.6,0-1-0.4-1-1v-1c0-0.6,0.4-1,1-1s1,0.4,1,1v1C109,85.6,108.6,86,108,86z"/>
	</g>
	<g>
		<rect x="108" y="90" class="st25" width="1" height="2"/>
	</g>
	<g>
		<path class="st14" d="M111,71v18h-6V71c1.3,0,1.7-0.5,3-1C109.3,70.5,109.7,71,111,71z"/>
		<path class="st7" d="M111,90h-6c-0.6,0-1-0.4-1-1V71c0-0.3,0.1-0.5,0.3-0.7s0.4-0.3,0.7-0.3c0.7,0,0.9-0.1,1.5-0.4
			c0.3-0.2,0.7-0.3,1.2-0.5c0.2-0.1,0.5-0.1,0.7,0c0.5,0.2,0.8,0.4,1.2,0.5c0.6,0.3,0.8,0.4,1.5,0.4c0.3,0,0.5,0.1,0.7,0.3
			s0.3,0.4,0.3,0.7v18C112,89.6,111.6,90,111,90z M106,88h4V71.9c-0.5-0.1-1-0.3-1.4-0.5c-0.2-0.1-0.4-0.2-0.6-0.3
			c-0.2,0.1-0.4,0.2-0.6,0.3c-0.4,0.2-0.8,0.4-1.4,0.5V88z"/>
	</g>
	<g>
		<path class="st26" d="M110,88V71.9c-1-0.1-1-0.5-2-0.9V88H110z"/>
	</g>
</g>
<g>
	<g>
		<circle class="st24" cx="99" cy="28" r="10"/>
		<path class="st7" d="M99,40c-6.6,0-12-5.4-12-12s5.4-12,12-12c6.6,0,12,5.4,12,12S105.6,40,99,40z M99,18c-5.5,0-10,4.5-10,10
			s4.5,10,10,10c5.5,0,10-4.5,10-10S104.5,18,99,18z"/>
	</g>
	<circle class="st2" cx="99" cy="28" r="7"/>
	<g>
		<path class="st7" d="M101,31c-0.3,0-0.5-0.1-0.7-0.3l-2-2C98.1,28.5,98,28.3,98,28v-5c0-0.6,0.4-1,1-1s1,0.4,1,1v4.6l1.7,1.7
			c0.4,0.4,0.4,1,0,1.4C101.5,30.9,101.3,31,101,31z"/>
	</g>
	<path class="st7" d="M99,19c-5,0-9,4-9,9s4,9,9,9c5,0,9-4,9-9S104,19,99,19z M100,34.9c0-0.5-0.5-0.9-1-0.9s-0.9,0.4-1,0.9
		c-3.1-0.4-5.5-2.9-5.9-5.9c0.5,0,0.9-0.5,0.9-1s-0.4-0.9-0.9-1c0.5-3.4,3.4-6,6.9-6c3.5,0,6.4,2.6,6.9,6c-0.5,0-0.9,0.5-0.9,1
		s0.4,0.9,0.9,1C105.5,32.1,103.1,34.5,100,34.9z"/>
</g>
<g>
	<g>
		<g>
			<path class="st18" d="M156,93h-18c-1.1,0-2-0.9-2-2V68c0-1.1,0.9-2,2-2h18c1.1,0,2,0.9,2,2v23C158,92.1,157.1,93,156,93z"/>
			<path class="st7" d="M156,94h-18c-1.7,0-3-1.3-3-3V68c0-1.7,1.3-3,3-3h18c1.7,0,3,1.3,3,3v23C159,92.7,157.7,94,156,94z M138,67
				c-0.6,0-1,0.4-1,1v23c0,0.6,0.4,1,1,1h18c0.6,0,1-0.4,1-1V68c0-0.6-0.4-1-1-1H138z"/>
		</g>
	</g>
	<g>
		<path class="st27" d="M156,67v23c0,0.6-0.4,1-1,1h-18c0,0.6,0.4,1,1,1h18c0.6,0,1-0.4,1-1V68C157,67.4,156.6,67,156,67z"/>
	</g>
	<g>
		<rect x="141" y="71" class="st28" width="12" height="5"/>
		<path class="st7" d="M154,78h-14c-0.6,0-1-0.4-1-1v-7c0-0.6,0.4-1,1-1h14c0.6,0,1,0.4,1,1v7C155,77.6,154.6,78,154,78z M141,76h12
			v-5h-12V76z"/>
	</g>
	<g>
		<g>
			<path class="st8" d="M141,80L141,80c-1.1,0-2,0.9-2,2l0,0c0,1.1,0.9,2,2,2l0,0c1.1,0,2-0.9,2-2l0,0C143,80.9,142.1,80,141,80z"/>
		</g>
		<g>
			<path class="st8" d="M147,80L147,80c-1.1,0-2,0.9-2,2l0,0c0,1.1,0.9,2,2,2l0,0c1.1,0,2-0.9,2-2l0,0C149,80.9,148.1,80,147,80z"/>
		</g>
		<g>
			<path class="st8" d="M141,86L141,86c-1.1,0-2,0.9-2,2l0,0c0,1.1,0.9,2,2,2l0,0c1.1,0,2-0.9,2-2l0,0C143,86.9,142.1,86,141,86z"/>
		</g>
		<g>
			<path class="st15" d="M147,86L147,86c-1.1,0-2,0.9-2,2l0,0c0,1.1,0.9,2,2,2l0,0c1.1,0,2-0.9,2-2l0,0C149,86.9,148.1,86,147,86z"
				/>
		</g>
	</g>
	<g>
		<path class="st11" d="M153,80L153,80c-1.1,0-2,0.9-2,2v6c0,1.1,0.9,2,2,2l0,0c1.1,0,2-0.9,2-2v-6C155,80.9,154.1,80,153,80z"/>
	</g>
	<g>
		<circle class="st29" cx="153" cy="85" r="1"/>
	</g>
	<g>
		<rect x="141" y="71" class="st30" width="12" height="1"/>
	</g>
</g>
<g>
	<g>
		<path class="st2" d="M68,44H48c-1.1,0-2-0.9-2-2V28h24v14C70,43.1,69.1,44,68,44z"/>
		<path class="st7" d="M68,45H48c-1.7,0-3-1.3-3-3V28c0-0.6,0.4-1,1-1h24c0.6,0,1,0.4,1,1v14C71,43.7,69.7,45,68,45z M47,29v13
			c0,0.6,0.4,1,1,1h20c0.6,0,1-0.4,1-1V29H47z"/>
	</g>
	<g>
		<path class="st24" d="M70,28H46v-3c0-1.1,0.9-2,2-2h20c1.1,0,2,0.9,2,2V28z"/>
		<path class="st7" d="M70,29H46c-0.6,0-1-0.4-1-1v-3c0-1.7,1.3-3,3-3h20c1.7,0,3,1.3,3,3v3C71,28.6,70.6,29,70,29z M47,27h22v-2
			c0-0.6-0.4-1-1-1H48c-0.6,0-1,0.4-1,1V27z"/>
	</g>
	<g>
		<path class="st7" d="M53,26c-0.6,0-1-0.4-1-1v-4c0-0.6,0.4-1,1-1s1,0.4,1,1v4C54,25.6,53.6,26,53,26z"/>
	</g>
	<g>
		<path class="st7" d="M63,26c-0.6,0-1-0.4-1-1v-4c0-0.6,0.4-1,1-1s1,0.4,1,1v4C64,25.6,63.6,26,63,26z"/>
	</g>
	<g>
		<path class="st10" d="M52,35L52,35c-1.1,0-2-0.9-2-2v0c0-1.1,0.9-2,2-2h0c1.1,0,2,0.9,2,2v0C54,34.1,53.1,35,52,35z"/>
	</g>
	<g>
		<path class="st10" d="M58,35L58,35c-1.1,0-2-0.9-2-2v0c0-1.1,0.9-2,2-2h0c1.1,0,2,0.9,2,2v0C60,34.1,59.1,35,58,35z"/>
	</g>
	<g>
		<path class="st10" d="M64,35L64,35c-1.1,0-2-0.9-2-2v0c0-1.1,0.9-2,2-2h0c1.1,0,2,0.9,2,2v0C66,34.1,65.1,35,64,35z"/>
	</g>
	<g>
		<path class="st10" d="M52,41L52,41c-1.1,0-2-0.9-2-2v0c0-1.1,0.9-2,2-2h0c1.1,0,2,0.9,2,2v0C54,40.1,53.1,41,52,41z"/>
	</g>
	<g>
		<path class="st10" d="M58,41L58,41c-1.1,0-2-0.9-2-2v0c0-1.1,0.9-2,2-2h0c1.1,0,2,0.9,2,2v0C60,40.1,59.1,41,58,41z"/>
	</g>
	<g>
		<path class="st10" d="M64,41L64,41c-1.1,0-2-0.9-2-2v0c0-1.1,0.9-2,2-2h0c1.1,0,2,0.9,2,2v0C66,40.1,65.1,41,64,41z"/>
	</g>
	<g>
		<rect x="47" y="29" class="st3" width="22" height="1"/>
	</g>
</g>
</svg>
